<svg width="251" height="368" viewBox="0 0 251 368" fill="none" xmlns="http://www.w3.org/2000/svg">
<path d="M179.962 158.18C186.3 163.324 182.798 180.372 95.2616 182.873C23.2376 184.931 2.1967 161.266 5.95189 165.896C-6.14816 150.977 39.9472 140.174 90.6521 140.174C171.319 138.116 175.928 154.906 179.962 158.18Z" fill="#797979"/>
<path d="M183.524 285.473C176.051 293.794 178.926 312.516 94.4273 316.676C62.3636 316.676 3.12486 308.313 5.33074 285.473C10.5041 231.909 -12.4886 267.792 94.4273 280.273C195.02 271.952 178.351 228.268 183.524 285.473Z" fill="#D9D9D9"/>
<path d="M178.351 322.916C178.351 332.969 178.926 359.84 94.4273 364C62.3636 364 8.34853 350.479 9.92928 327.597C12.8034 285.993 -12.4886 315.116 94.4273 327.597C195.02 319.276 181.8 276.632 178.351 322.916Z" fill="#D9D9D9"/>
<path d="M183.524 188.225C183.524 198.277 176.626 215.267 92.1279 219.427C60.0642 219.427 1.45059 211.107 3.03133 188.225C5.90542 146.621 -14.788 170.543 92.1279 183.024C192.721 174.704 186.973 141.941 183.524 188.225Z" fill="#D9D9D9"/>
<path d="M183.524 237.109C183.524 247.161 176.626 264.151 92.1279 268.312C60.0642 268.312 3.74999 259.991 5.33074 237.109C8.20483 195.505 -14.788 219.427 92.1279 231.909C192.721 223.588 186.973 190.825 183.524 237.109Z" fill="#D9D9D9"/>
<path d="M180.479 204.675C186.25 214.482 179.325 223.257 92.7602 231C47.8203 231 -0.152852 214.998 4.46396 207.256C-1.30703 180.93 47.8203 219.128 92.7602 219.128C176.44 207.256 181.633 189.189 180.479 204.675Z" fill="#00A6FF"/>
<path d="M180.496 300.877C186.202 310.982 179.355 320.023 93.7629 328C49.3279 328 1.89381 311.513 6.45874 303.536C0.752599 276.413 49.3279 315.768 93.7629 315.768C176.502 303.536 181.638 284.922 180.496 300.877Z" fill="#00A6FF"/>
<path d="M180.496 253.675C186.202 263.482 179.355 272.257 93.7629 280C49.3279 280 1.89381 263.998 6.45874 256.256C0.752599 229.93 49.3279 268.128 93.7629 268.128C176.502 256.256 181.638 238.189 180.496 253.675Z" fill="#00A6FF"/>
<path d="M90.8971 139.398C76.7333 139.398 62.6519 140.122 48.6397 141.999C42.1027 142.875 35.6175 144.158 29.3656 146.125C25.117 147.462 20.9417 149.002 16.7895 150.566C14.3462 151.486 11.865 152.397 9.70143 153.794C7.98109 154.905 5.26855 156.257 4.41599 158.086C2.84815 161.45 6.03541 163.153 8.59884 164.695C10.9879 166.132 14.0099 167.313 16.7487 168.025C18.7558 168.547 6.93479 164.852 22.5216 170.502C53.118 181.594 8.59884 164.695 31.7583 173.612C35.7993 174.809 37.2046 176.059 41.6229 176.738C47.2384 177.601 52.862 178.062 58.5206 178.569C69.569 179.558 80.5634 181.409 91.6671 181.891C102.837 182.377 113.32 181.198 124.234 179.142C133.61 177.376 142.952 175.96 152.186 173.612C156.37 172.548 160.436 171.219 164.561 169.98C168.561 168.779 172.628 167.697 176.592 166.416C178.189 165.9 179.85 165.46 181.401 164.836C183.222 164.103 185.334 162.132 184.956 160.162C184.693 158.791 182.902 157.773 181.945 156.781C180.71 155.501 179.168 154.518 177.828 153.332C174.236 150.152 170.053 148.157 165.271 146.818C162.381 146.01 159.291 145.39 156.486 144.332C155.046 143.789 153.698 143.046 152.22 142.582C150.15 141.932 152.22 142.582 146.639 141.411C144.763 140.756 142.263 140.499 140.22 140.348C135.015 139.963 129.79 139.551 124.572 139.244C117.858 138.848 111.795 139.61 105.074 139.324C96.4148 139.323 94.982 138.543 88.3327 139.406" stroke="black" stroke-width="3" stroke-linecap="round"/>
<path d="M9 164.49C8.64463 164.301 8.22123 164.311 7.82521 164.195C7.29114 164.038 6.75555 163.922 6.24128 163.723C5.79333 163.549 5.30759 163.49 4.85849 163.335C4.5288 163.221 4.69031 161.905 4.64681 161.569C4.28019 158.736 4.07349 167.258 4.0936 170.109C4.11178 172.687 4.22071 175.246 4.16024 177.826C4.10735 180.083 4.05721 182.34 4.00589 184.597C3.94619 187.222 4.34423 189.964 5.03269 192.521C5.39816 193.878 5.88494 195.198 6.59555 196.45C6.82563 196.856 7.0572 197.266 7.38764 197.618C7.45285 197.688 7.84239 198.083 7.82252 197.984" stroke="black" stroke-width="3" stroke-linecap="round"/>
<path d="M6.99051 198C6.89258 198.127 6.82318 198.434 6.73494 198.6C6.5739 198.904 6.44342 199.314 6.36265 199.705C6.02735 201.327 6.00695 203.11 6.00027 204.821C5.99421 206.375 6.08934 208.014 6.21494 209.55C6.27698 210.308 6.37581 211.045 6.54832 211.749C6.61377 212.016 6.69225 212.276 6.78207 212.519C6.819 212.619 7 212.899 7 213" stroke="black" stroke-width="3" stroke-linecap="round"/>
<path d="M8 198.062C9.89356 197.824 11.8531 198.325 13.7171 198.602C15.6741 198.893 17.5725 199.155 19.4986 199.625C20.4521 199.857 21.3516 200.151 22.2686 200.496C23.8478 201.091 25.4958 201.496 27.0977 202.027C29.6048 202.858 31.9612 204.036 34.4372 204.956C35.6309 205.4 36.857 205.786 38.0272 206.286C39.1184 206.752 40.154 207.368 41.2624 207.787C42.1265 208.115 43.0161 208.403 43.8691 208.754C44.6087 209.058 45.2846 209.493 46.0385 209.771C46.6645 210.002 47.3262 210.122 47.9517 210.343C48.6465 210.588 49.2583 210.921 50 211" stroke="black" stroke-width="3" stroke-linecap="round"/>
<path d="M84 218.962C83.0972 218.962 82.2044 219.056 81.3024 218.949C79.5231 218.737 77.7788 218.383 76.0089 218.116C74.3574 217.867 72.7123 217.606 71.0642 217.341C68.9161 216.997 66.8985 216.32 64.819 215.778C63.1945 215.355 61.5978 214.876 60.0019 214.381C58.3579 213.87 56.6984 213.426 55.084 212.858C53.6506 212.354 52.1746 211.946 50.763 211.394C50.0286 211.107 49.2747 210.869 48.5403 210.585C48.082 210.407 47.508 209.986 47 210" stroke="black" stroke-width="3" stroke-linecap="round"/>
<path d="M116 216C115.673 216.011 115.274 216.252 114.965 216.35C114.4 216.527 113.848 216.731 113.289 216.923C112.687 217.129 112.086 217.346 111.472 217.514C110.645 217.741 109.756 217.797 108.907 217.909C105.812 218.317 102.734 218.838 99.6432 219.273C97.0439 219.639 94.4181 219.963 91.7914 219.995C90.4876 220.011 89.1989 219.986 87.896 219.941C87.153 219.915 86.4049 219.965 85.6685 219.853C85.1015 219.767 84.5472 219.606 84 219.837" stroke="black" stroke-width="3" stroke-linecap="round"/>
<path d="M148 208C147.465 208.1 146.846 208.339 146.364 208.581C145.309 209.111 144.161 209.401 143.051 209.808C141.942 210.215 140.803 210.546 139.654 210.839C137.841 211.299 135.963 211.486 134.147 211.925C132.894 212.229 131.657 212.608 130.403 212.897C129.79 213.037 129.166 213.124 128.555 213.275C127.861 213.446 127.194 213.695 126.496 213.858C124.633 214.292 122.787 214.69 120.89 214.97C119.28 215.208 117.517 215.422 116 216" stroke="black" stroke-width="3" stroke-linecap="round"/>
<path d="M180 198C179.859 198.284 179.423 198.476 179.15 198.632C178.751 198.859 178.322 199.025 177.896 199.204C176.869 199.637 175.785 199.971 174.732 200.349C173.265 200.876 171.784 201.329 170.275 201.75C168.786 202.167 167.341 202.689 165.863 203.131C162.7 204.077 159.487 204.836 156.287 205.671C154.768 206.068 153.268 206.532 151.841 207.148C150.257 207.832 148.452 208.103 147 209" stroke="black" stroke-width="3" stroke-linecap="round"/>
<path d="M180 198C180.059 197.709 180.608 197.389 180.814 197.181C181.21 196.781 181.552 196.412 181.803 195.913C182.372 194.787 182.639 193.64 182.771 192.4C183.057 189.724 183.364 187.04 183.528 184.351C183.712 181.349 184.487 178.389 184.697 175.385C184.821 173.618 185.034 171.893 184.995 170.118C184.972 169.028 184.805 167.97 184.625 166.896C184.454 165.882 184.179 164.51 183.146 164" stroke="black" stroke-width="3" stroke-linecap="round"/>
<path d="M178 154C178.348 154.054 178.527 154.432 178.741 154.617C179.207 155.018 179.714 155.381 180.237 155.738C181.169 156.375 181.976 156.932 182.616 157.774C183.414 158.823 184.016 160.012 184 161.24C183.979 162.804 183.036 163.979 181.529 165" stroke="black" stroke-width="3" stroke-linecap="round"/>
<path d="M181.105 198C181.079 198.057 181.138 198.222 181.145 198.272C181.188 198.598 181.205 198.92 181.22 199.248C181.24 199.672 181.246 200.113 181.218 200.536C181.183 201.063 181.102 201.582 181.05 202.107C180.988 202.729 181.001 203.357 181.001 203.982C181.001 204.619 181.146 205.22 181.328 205.82C181.555 206.565 181.769 207.34 181.904 208.113C182.031 208.84 182.019 209.633 181.945 210.367C181.9 210.807 181.837 211.253 181.745 211.684C181.73 211.749 181.669 212.008 181.675 212" stroke="black" stroke-width="3" stroke-linecap="round"/>
<path d="M164 221.997C164.042 222.019 164.352 221.912 164.379 221.906C164.924 221.776 165.445 221.624 165.97 221.436C166.848 221.122 167.745 220.859 168.637 220.586C170.552 219.998 172.505 219.369 174.286 218.468C175.178 218.017 176.047 217.49 176.911 216.994C177.598 216.599 178.243 216.167 178.862 215.679C179.481 215.19 180.036 214.646 180.535 214.046C181.073 213.401 181.673 212.772 182 212" stroke="black" stroke-width="3" stroke-linecap="round"/>
<path d="M147 225C147.542 225 148.099 224.866 148.618 224.693C149.537 224.388 150.469 224.143 151.378 223.801C153.134 223.141 154.954 222.698 156.749 222.208C158.299 221.785 159.849 221.373 161.412 221.015C162.055 220.868 162.692 220.7 163.329 220.521C163.652 220.431 163.975 220.346 164.288 220.213C164.529 220.111 164.742 220.016 165 220" stroke="black" stroke-width="3" stroke-linecap="round"/>
<path d="M128 228C128.28 227.984 128.579 227.88 128.847 227.816C129.456 227.672 130.064 227.568 130.692 227.505C131.563 227.419 132.413 227.24 133.277 227.121C134.554 226.945 135.854 226.919 137.132 226.749C138.139 226.615 139.128 226.394 140.133 226.254C141.046 226.126 141.952 225.987 142.862 225.848C143.282 225.784 143.708 225.737 144.131 225.693C144.557 225.648 144.998 225.641 145.419 225.57C145.725 225.519 146.026 225.443 146.332 225.396C146.726 225.337 147.129 225.325 147.524 225.271C148 225.206 148.585 225.224 149 225" stroke="black" stroke-width="3" stroke-linecap="round"/>
<path d="M110.031 230C109.878 230 110.333 229.94 110.485 229.916C111.014 229.832 111.533 229.682 112.061 229.584C112.875 229.433 113.696 229.29 114.513 229.165C115.367 229.035 116.223 228.921 117.077 228.792C118.235 228.617 119.412 228.584 120.559 228.306C121.355 228.113 122.187 228.023 122.997 227.956C123.714 227.898 124.406 227.748 125.115 227.624C126.08 227.455 127.057 227.292 128 227" stroke="black" stroke-width="3" stroke-linecap="round"/>
<path d="M94 231C94.5689 230.984 95.1298 230.893 95.698 230.864C96.3966 230.827 97.0913 230.772 97.7894 230.734C98.5522 230.693 99.3168 230.63 100.082 230.606C100.972 230.577 101.864 230.576 102.754 230.535C103.561 230.498 104.36 230.433 105.17 230.404C105.843 230.381 106.496 230.383 107.153 230.287C107.604 230.22 108.036 230.177 108.496 230.137C108.993 230.094 109.499 230.02 110 230" stroke="black" stroke-width="3" stroke-linecap="round"/>
<path d="M77 231C77.002 231 78.4431 231 78.6204 231C79.5799 231 80.5385 231 81.498 231C82.5155 231 83.5287 231 84.546 231C85.4982 231 86.448 231 87.401 231C88.0196 231 88.6287 231 89.2423 231C89.8322 231 90.4303 231 91.0248 231C91.5966 231 92.1763 231 92.7467 231C93.1598 231 93.592 231 94 231" stroke="black" stroke-width="3" stroke-linecap="round"/>
<path d="M60 229C60.0346 229.02 60.1 229.017 60.1395 229.025C60.3104 229.059 60.4723 229.114 60.646 229.14C61.0294 229.198 61.4182 229.226 61.8004 229.288C62.7365 229.439 63.6755 229.576 64.6182 229.694C65.7436 229.835 66.8611 229.984 67.9951 230.07C68.6692 230.121 69.3425 230.17 70.0159 230.226C71.4786 230.347 72.9469 230.456 74.4041 230.622C74.6873 230.654 74.9664 230.708 75.2506 230.734C75.5832 230.765 75.9197 230.758 76.2514 230.796C76.8354 230.864 77.4134 230.945 78 231" stroke="black" stroke-width="3" stroke-linecap="round"/>
<path d="M46 227C46.0345 227.046 46.3833 227.066 46.443 227.075C46.7327 227.117 47.0323 227.128 47.3237 227.167C48.0242 227.26 48.7267 227.345 49.4273 227.437C49.9055 227.5 50.3661 227.597 50.8492 227.649C51.3579 227.704 51.867 227.756 52.3749 227.814C53.539 227.947 54.7121 228.052 55.8743 228.189C56.4418 228.256 57.0111 228.311 57.5804 228.372C57.9929 228.416 58.3983 228.48 58.8136 228.514C59.4461 228.566 60.0725 228.606 60.6915 228.702C61.0965 228.766 61.5128 228.803 61.9214 228.857C62.1146 228.883 62.3074 228.91 62.5018 228.932C62.6685 228.952 62.846 228.954 63 229" stroke="black" stroke-width="3" stroke-linecap="round"/>
<path d="M30 222C30.1234 222.002 30.2524 222.106 30.3582 222.159C30.6123 222.289 30.8781 222.372 31.139 222.48C31.7336 222.727 32.3662 222.83 32.9773 223.014C33.9679 223.311 34.9148 223.776 35.9083 224.071C36.9089 224.367 37.9241 224.601 38.9217 224.911C39.5491 225.106 40.1672 225.342 40.7908 225.552C41.4076 225.76 42.0449 225.904 42.6665 226.095C43.1679 226.249 43.6772 226.331 44.1828 226.457C44.5034 226.538 44.8213 226.629 45.1402 226.717C45.4386 226.8 45.7293 226.83 46 227" stroke="black" stroke-width="3" stroke-linecap="round"/>
<path d="M19 218C19.0864 218.015 19.1728 218.082 19.2423 218.119C19.4061 218.208 19.5897 218.263 19.759 218.343C20.1009 218.504 20.4719 218.633 20.8366 218.754C21.2765 218.901 21.7209 219.044 22.152 219.208C22.6972 219.416 23.2839 219.547 23.843 219.726C24.5884 219.965 25.3396 220.196 26.1135 220.363C26.6368 220.476 27.1667 220.573 27.6798 220.717C27.9646 220.797 28.2445 220.888 28.5296 220.967C28.7569 221.03 28.9817 221.099 29.2118 221.155C29.4586 221.214 29.6844 221.313 29.927 221.381C30.6269 221.577 31.3149 221.768 32 222" stroke="black" stroke-width="3" stroke-linecap="round"/>
<path d="M8 214C8.11422 214.094 8.31313 214.159 8.45177 214.236C8.6521 214.346 8.89761 214.405 9.11411 214.497C9.32089 214.585 9.51923 214.683 9.72778 214.769C9.95376 214.863 10.1949 214.932 10.428 215.015C10.9343 215.195 11.4204 215.403 11.93 215.577C12.5212 215.779 13.1076 215.987 13.6918 216.199C14.1929 216.381 14.7059 216.544 15.1974 216.739C15.4422 216.837 15.7001 216.894 15.954 216.976C16.2416 217.068 16.4824 217.207 16.7554 217.315C17.1067 217.452 17.4757 217.534 17.8375 217.65C18.2159 217.772 18.5771 217.982 19 218" stroke="black" stroke-width="3" stroke-linecap="round"/>
<path d="M7 213C6.24002 213.164 5.5748 213.506 5.13787 213.787C4.59776 214.134 4.38108 214.563 4.24497 214.959C4.11568 215.335 4.01779 215.717 4.00173 216.096C3.97491 216.73 4.26788 217.368 4.36332 218" stroke="black" stroke-width="3" stroke-linecap="round"/>
<path d="M4.0455 218C3.88495 218.218 4.19901 218.923 4.22241 219.179C4.26361 219.628 4.39369 220.059 4.40528 220.512C4.43042 221.493 4.48965 222.462 4.48827 223.444C4.48457 226.064 4.79843 228.701 4.59934 231.318C4.50481 232.561 4.64905 233.776 4.67164 235.016C4.69671 236.391 4.65339 237.765 4.67114 239.14C4.6907 240.655 4.7554 242.299 5.25454 243.768C5.61614 244.832 7.34326 247.833 6.93913 246.779" stroke="black" stroke-width="3" stroke-linecap="round"/>
<path d="M7 248C7 249.815 7 252.055 7 254.062C7 255.054 7 256.04 7 257.024C7 257.671 7 259.461 7 258.889" stroke="black" stroke-width="3" stroke-linecap="round"/>
<path d="M6.7247 259C6.65352 260.335 6.42878 261.627 6.39463 262.979C6.36997 263.955 6.38598 264.926 6.39215 265.902C6.4109 268.869 6.45535 271.848 6.37353 274.816C6.27869 278.256 6.02384 281.67 6.00226 285.117C5.99128 286.87 6.01192 288.702 6.25664 290.416C6.37573 291.25 6.57262 292.056 6.74257 292.864C6.79869 293.13 6.87084 293.386 6.92995 293.65C6.9443 293.714 7.02778 294.009 6.9905 294" stroke="black" stroke-width="3" stroke-linecap="round"/>
<path d="M7.49398 294.002C7.48657 293.984 7.42744 294.115 7.42626 294.118C7.30775 294.387 7.16949 294.644 7.04625 294.91C6.82645 295.385 6.61667 295.869 6.50269 296.393C6.20506 297.759 5.99219 299.215 6.00022 300.626C6.00952 302.261 6.18413 303.886 6.67215 305.433C6.85253 306.006 7.1242 306.593 7.41541 307.105C7.4748 307.209 8.04667 307.94 7.99694 308" stroke="black" stroke-width="3" stroke-linecap="round"/>
<path d="M8 309C8 309.803 8.19929 310.668 8.31669 311.469C8.42216 312.188 8.55083 312.917 8.57993 313.643C8.65959 315.63 8.70114 317.625 8.81425 319.61C8.95041 322 8.89534 324.389 8.84079 326.779C8.81771 327.791 8.79696 328.811 8.84171 329.822C8.86997 330.461 9.13578 331.393 8.90944 332" stroke="black" stroke-width="3" stroke-linecap="round"/>
<path d="M9.00447 332C8.97626 332.07 9.08943 332.174 9.12281 332.23C9.43473 332.76 9.67896 333.316 9.95681 333.859C10.3635 334.653 10.8599 335.403 11.289 336.188C12.1908 337.837 13.4036 339.377 14.6291 340.864C15.6815 342.141 17.0466 343.199 18.3725 344.259C19.772 345.377 21.4176 346.414 23.0255 347.306C24.7421 348.259 26.6828 348.891 28.4218 349.812C29.1787 350.213 29.8713 350.682 30.6609 351.04C31.3326 351.345 32.0483 351.567 32.7201 351.873C33.4501 352.206 41.8552 355.286 42 354.978" stroke="black" stroke-width="3" stroke-linecap="round"/>
<path d="M42 355C42.0309 355.04 42.2942 355.057 42.3391 355.07C42.9904 355.258 43.6578 355.532 44.2722 355.81C45.8483 356.522 47.4579 357.15 49.1285 357.635C50.9895 358.175 52.8549 358.732 54.7386 359.197C56.9908 359.752 59.2056 360.473 61.4823 360.939C63.6757 361.388 65.91 361.778 68.1256 362.11C69.876 362.372 71.6429 362.432 73.3979 362.686C75.4628 362.984 77.5428 363.155 79.6084 363.458C80.8521 363.641 82.0939 363.73 83.3463 363.835C84.2229 363.909 85.1188 364.036 86 363.99" stroke="black" stroke-width="3" stroke-linecap="round"/>
<path d="M122.906 362.074C123.138 361.899 122.895 362.079 122.666 362.16C121.623 362.529 120.359 362.784 119.237 362.988C115.574 363.653 111.796 363.487 108.122 364.105C106.202 364.428 104.177 364.414 102.226 364.509C100.309 364.603 98.3923 364.716 96.475 364.814C94.3154 364.925 92.1659 365.087 90.002 364.943C87.9703 364.808 86.0134 364.452 84 364.236" stroke="black" stroke-width="3" stroke-linecap="round"/>
<path d="M162.973 349C163.116 349.002 162.641 349.222 162.615 349.238C161.973 349.635 161.359 350.07 160.752 350.505C159.427 351.456 157.793 351.96 156.246 352.572C154.797 353.145 153.436 353.864 151.978 354.422C150.268 355.075 148.626 355.804 146.86 356.346C144.474 357.079 142.012 357.546 139.558 358.064C138.247 358.341 136.96 358.693 135.643 358.948C134.46 359.178 133.271 359.384 132.089 359.618C129.742 360.082 127.395 360.48 125.032 360.88C123.349 361.165 121.617 361.502 120 362" stroke="black" stroke-width="3" stroke-linecap="round"/>
<path d="M178.865 319C178.843 319.44 178.941 319.865 178.985 320.307C179.046 320.936 178.905 321.564 178.882 322.191C178.852 323.052 178.844 323.88 178.721 324.734C178.627 325.386 178.583 326.042 178.535 326.697C178.449 327.89 178.634 329.103 178.495 330.287C178.364 331.403 178.064 332.547 177.713 333.62C177.271 334.966 176.773 336.326 176.042 337.565C175.214 338.968 174.492 340.496 173.485 341.798C172.114 343.57 170.685 345.346 168.816 346.707C167.935 347.349 166.99 347.845 166.013 348.351C164.992 348.88 164.1 349.615 163 350" stroke="black" stroke-width="3" stroke-linecap="round"/>
<path d="M179.689 292C179.456 292.212 179.357 292.606 179.224 292.871C178.996 293.326 178.745 293.769 178.506 294.218C178.458 294.308 178.091 295.124 178.023 295.116C177.916 295.103 178.218 295.204 178.302 295.266C178.63 295.506 179.014 295.665 179.316 295.937C180.055 296.604 180.7 297.76 180.876 298.694C180.968 299.181 181.01 299.699 181.036 300.193C181.062 300.67 180.871 301.177 180.958 301.641C181.054 302.154 181.356 302.635 181.559 303.115C181.863 303.833 181.967 304.596 181.994 305.363C182.026 306.251 181.923 307.093 181.693 307.954C181.479 308.755 181.253 309.612 180.777 310.317C180.448 310.806 180.072 311.245 179.96 311.823C179.799 312.652 179.726 313.491 179.57 314.321C179.31 315.701 179.265 317.136 179.121 318.531C179.071 319.022 178.969 319.511 178.896 320" stroke="black" stroke-width="3" stroke-linecap="round"/>
<path d="M182.214 262C182.151 262.067 182.219 262.182 182.238 262.251C182.37 262.723 182.493 263.184 182.595 263.66C182.853 264.873 182.918 266.124 183.01 267.351C183.234 270.35 183.643 273.327 183.757 276.333C183.809 277.716 183.733 279.081 183.684 280.463C183.638 281.739 183.984 282.998 184 284.275C184.014 285.481 183.687 286.721 183.065 287.831C182.713 288.46 182.297 289.064 181.773 289.619C181.027 290.408 180.367 291.065 180 292" stroke="black" stroke-width="3" stroke-linecap="round"/>
<path d="M181.896 244C181.744 244.362 181.684 244.923 181.579 245.343C181.483 245.731 181.4 246.131 181.309 246.523C181.242 246.811 181.167 247.09 181.09 247.368C181.055 247.496 180.978 247.678 181.006 247.835C181.045 248.054 181.114 248.24 181.146 248.469C181.2 248.852 181.243 249.247 181.277 249.638C181.342 250.372 181.389 251.089 181.408 251.833C181.418 252.231 181.436 252.63 181.429 253.028C181.425 253.249 181.382 253.508 181.424 253.721C181.492 254.072 181.524 254.439 181.579 254.798C181.658 255.316 181.769 255.813 181.846 256.334C181.992 257.324 182.046 258.375 181.956 259.395C181.906 259.955 181.858 260.536 181.776 261.082C181.744 261.297 181.699 261.932 181.571 262" stroke="black" stroke-width="3" stroke-linecap="round"/>
<path d="M184 222C183.896 222.207 183.914 222.483 183.906 222.706C183.889 223.185 183.873 223.675 183.905 224.155C183.957 224.959 183.879 225.765 183.799 226.565C183.702 227.533 183.702 228.497 183.731 229.47C183.762 230.528 183.683 231.583 183.703 232.643C183.722 233.667 183.666 234.696 183.621 235.719C183.572 236.826 183.34 237.909 183.26 239.01C183.2 239.834 183.149 240.638 183.032 241.456C182.897 242.399 182.428 243.174 182 244" stroke="black" stroke-width="3" stroke-linecap="round"/>
<path d="M182.011 212C181.938 212.004 182.244 212.177 182.267 212.195C182.631 212.476 182.88 212.823 183.139 213.16C183.734 213.931 184.245 214.651 184.472 215.537C184.724 216.522 184.891 217.537 184.982 218.537C185.086 219.677 184.683 220.884 184.984 222" stroke="black" stroke-width="3" stroke-linecap="round"/>
<path d="M7.00517 247.367C6.82717 246.641 11.3004 247.208 11.8778 247.256C16.3948 247.636 20.882 248.844 25.1473 250.112C28.656 251.155 32.2551 251.999 35.6103 253.387C39.5815 255.031 43.5989 256.342 47.6923 257.745C51.9356 259.2 56.3752 259.986 60.745 261.081C63.8603 261.862 66.8253 263.048 70.0018 263.651C72.0703 264.044 74.0972 264.554 76.1514 264.992C78.2727 265.444 80.4038 266.074 82.5625 266.369C85.0614 266.71 87.5296 266.914 90.0619 266.853C91.6257 266.815 93.1829 267.05 94.7413 266.988C95.8366 266.945 96.9112 266.846 98 267" stroke="black" stroke-width="3" stroke-linecap="round"/>
<path d="M89 279.782C85.5077 279.782 82.0444 280.11 78.54 279.961C77.2207 279.906 75.8778 279.78 74.5679 279.626C73.0788 279.451 71.5334 279.493 70.0624 279.223C66.9681 278.656 63.8237 278.233 60.7109 277.726C57.0365 277.126 53.4241 276.364 49.7953 275.56C41.6494 273.756 33.7134 271.217 25.6059 269.298C24.0667 268.934 22.1322 268.356 20.7845 267.575C19.368 266.754 17.7797 266.191 16.4052 265.312C15.8257 264.941 15.3325 264.478 14.7387 264.121C13.3438 263.283 11.8186 262.595 10.4968 261.662C9.73038 261.121 8.08417 259.942 8 259" stroke="black" stroke-width="3" stroke-linecap="round"/>
<path d="M164 252.005C163.917 251.862 157.208 254.609 156.763 254.841C155.685 255.403 154.614 255.753 153.412 256.072C152.016 256.444 150.614 256.91 149.171 257.133C146.32 257.575 143.51 257.928 140.744 258.69C139.441 259.048 138.141 259.296 136.788 259.47C134.898 259.712 133.092 260.276 131.205 260.524C129.826 260.705 128.477 261.037 127.134 261.352C125.71 261.685 124.205 261.778 122.76 262.039C119.773 262.576 116.881 263.32 114.003 264.176C112.76 264.546 111.544 264.698 110.239 264.791C108.394 264.922 106.693 265.383 104.913 265.783C101.69 266.507 98.2913 266.699 95 267" stroke="black" stroke-width="3" stroke-linecap="round"/>
<path d="M160 271.013C159.763 270.947 159.478 271.144 159.276 271.224C158.12 271.68 156.968 272.023 155.712 272.191C153.523 272.485 151.337 272.851 149.158 273.192C146.852 273.553 144.518 273.713 142.216 274.071C140.741 274.3 139.274 274.564 137.799 274.792C136.362 275.013 134.938 275.003 133.491 275.102C131.969 275.206 130.469 275.435 128.975 275.698C126.362 276.158 123.589 276.485 120.935 276.691C118.455 276.884 115.892 277.157 113.483 277.701C110.63 278.345 107.7 278.62 104.784 278.963C101.816 279.311 98.8061 279.542 95.8244 279.78C94.3136 279.901 92.7762 280.031 91.2567 279.993C89.7931 279.957 88.445 279.514 87 279.448" stroke="black" stroke-width="3" stroke-linecap="round"/>
<path d="M180 247C179.807 247.061 179.659 247.17 179.492 247.261C178.809 247.634 178.104 247.952 177.344 248.232C175.965 248.741 174.681 249.28 173.185 249.601C171.372 249.99 169.513 250.271 167.681 250.606C165.715 250.965 163.894 251.476 162 252" stroke="black" stroke-width="3" stroke-linecap="round"/>
<path d="M181 262C180.539 262.236 180.229 262.585 179.843 262.883C179.246 263.344 178.459 263.629 177.773 264.007C176.276 264.833 174.71 265.577 173.102 266.275C170.683 267.326 168.092 267.983 165.525 268.783C162.716 269.658 159.987 270.518 157 271" stroke="black" stroke-width="3" stroke-linecap="round"/>
<path d="M7.08042 294.783C6.86112 294.704 7.14332 294.375 7.29727 294.307C7.84862 294.066 8.62928 293.967 9.22488 294.01C12.0206 294.211 14.7853 294.665 17.5198 295.241C20.1389 295.793 22.6577 296.844 25.1966 297.655C28.1801 298.609 31.0499 299.847 34.0061 300.87C39.424 302.744 44.8564 304.658 50.2054 306.706C53.0902 307.81 55.919 309.007 58.7868 310.143C60.0444 310.642 61.3955 310.857 62.6738 311.298C63.4922 311.58 64.2797 311.926 65.0917 312.222C65.7386 312.458 66.4623 312.583 67 313" stroke="black" stroke-width="3" stroke-linecap="round"/>
<path d="M9 309.001C9.34251 308.984 9.55071 309.196 9.79803 309.391C10.4323 309.89 11.1248 310.159 11.8809 310.441C12.9833 310.852 13.9715 311.486 15.0509 311.945C16.2059 312.436 17.3918 312.853 18.5626 313.308C20.2686 313.971 21.895 314.832 23.5929 315.524C25.7199 316.391 27.9952 317.143 30.2199 317.758C32.7624 318.46 35.1875 319.568 37.6951 320.382C40.4729 321.283 43.2282 322.353 46.0443 323.141C48.5956 323.855 51.1686 324.484 53.7047 325.233C54.815 325.56 55.9309 325.87 57.043 326.194C58.159 326.52 59.2557 326.96 60.3731 327.259C61.2756 327.501 62.3308 327.535 63.2625 327.581C64.1829 327.625 65.1009 327.827 66 328" stroke="black" stroke-width="3" stroke-linecap="round"/>
<path d="M110 312.43C109.744 312.44 109.273 312.762 109.047 312.845C108.095 313.198 107.116 313.44 106.154 313.761C104.482 314.319 102.827 314.915 101.118 315.343C99.4543 315.761 97.7988 315.986 96.087 315.997C93.8259 316.011 91.5239 315.984 89.2704 315.817C85.4464 315.532 81.6169 314.739 77.845 314.053C75.8244 313.685 73.7995 313.329 71.7998 312.849C70.8207 312.614 69.8495 312.354 68.866 312.139C67.2424 311.785 65.6533 311.175 64 311" stroke="black" stroke-width="3" stroke-linecap="round"/>
<path d="M107 326.195C105.531 326.45 104.123 327.009 102.645 327.228C101.139 327.451 99.6579 327.807 98.1388 327.931C96.1269 328.097 94.0121 327.927 91.9957 327.804C90.389 327.705 88.7807 327.736 87.1747 327.63C83.0247 327.356 78.885 326.843 74.7327 326.626C73.0006 326.535 71.2654 326.453 69.533 326.373C67.3588 326.272 65.1737 325.977 63 326.001" stroke="black" stroke-width="3" stroke-linecap="round"/>
<path d="M148 304C146.576 304.4 145.256 305.05 143.818 305.425C142.451 305.782 141.155 306.326 139.763 306.612C136.594 307.262 133.445 307.937 130.293 308.662C127.774 309.242 125.275 309.893 122.742 310.414C118.498 311.287 114.216 312.015 110 313" stroke="black" stroke-width="3" stroke-linecap="round"/>
<path d="M151 320C149.597 320.268 148.271 320.835 146.858 321.114C145.011 321.478 143.114 321.601 141.249 321.879C139.365 322.161 137.522 322.587 135.646 322.901C134.007 323.176 132.354 323.414 130.707 323.655C128.892 323.922 127.079 324.118 125.25 324.297C123.055 324.511 120.881 324.803 118.676 324.942C116.848 325.058 115.038 325.313 113.226 325.545C111.148 325.812 109.1 325.955 107 326" stroke="black" stroke-width="3" stroke-linecap="round"/>
<path d="M178 294C176.852 294.981 175.611 295.826 174.216 296.482C172.884 297.109 171.632 297.833 170.244 298.353C168.965 298.832 167.651 299.221 166.373 299.7C163.402 300.813 160.271 301.566 157.238 302.518C155.504 303.063 153.747 303.544 152.016 304.1C149.708 304.841 147.307 305.263 145 306" stroke="black" stroke-width="3" stroke-linecap="round"/>
<path d="M181 311C180.154 311.35 179.46 311.948 178.605 312.293C177.182 312.869 175.749 313.427 174.32 313.988C173.188 314.433 171.987 314.735 170.842 315.152C169.537 315.627 168.261 316.171 166.916 316.553C165.559 316.938 164.124 317.112 162.743 317.422C161.228 317.761 159.715 318.111 158.187 318.401C154.12 319.173 149.957 319.844 146 321" stroke="black" stroke-width="3" stroke-linecap="round"/>
<path d="M180 82C180 124.763 147.074 159 106.973 159C67.0411 159 36 124.943 36 82C36 39.0572 67.0411 5 106.973 5C147.074 5 180 39.2371 180 82Z" stroke="black" stroke-width="10"/>
<path d="M114.426 28.8085C113.709 28.4441 112.646 28.4767 111.869 28.423C110.709 28.3427 109.583 28.3807 108.422 28.3676C107.368 28.3557 110.532 28.2688 111.585 28.333C111.668 28.338 112.506 28.3955 112.067 28.3446C111.319 28.2578 110.576 28.1729 109.824 28.1373C108.565 28.0778 107.316 27.9841 106.056 28.0136C105.544 28.0255 105.035 28.0477 104.525 28.0842C103.813 28.135 103.927 28.0916 104.567 28.0129C105.908 27.8478 107.241 27.8681 108.588 27.8341C108.939 27.8252 109.989 27.8222 109.64 27.7965C108.851 27.7386 108.041 27.7264 107.252 27.7667C104.746 27.895 102.099 27.8612 99.6265 28.3414C98.0425 28.649 96.5017 29.0828 94.9272 29.4156C92.7046 29.8853 90.4139 30.5932 88.3194 31.5063C87.2791 31.9597 86.1497 32.2359 85.1649 32.8321C83.9421 33.5724 83.3152 34.3246 83.0532 35.8467C82.5565 38.7318 85.6478 40.0337 87.7965 39.2548C89.8683 38.5038 91.819 37.2868 93.932 36.653C97.2095 35.6699 100.348 34.8525 103.769 34.583C112.588 33.8884 121.864 36.0964 129.341 41.179C132.136 43.0791 135.06 44.766 137.545 47.1207C139.401 48.8796 141.288 50.6835 143.043 52.5531C143.797 53.3567 144.844 54.0666 145.797 54.5781C147.069 55.2609 148.033 55.1468 148.95 54.0018C149.473 53.3475 150.139 52.0286 149.974 51.099C149.73 49.7218 148.857 48.6226 147.985 47.6358C144.567 43.7658 141.274 39.8675 137.015 37.0171C133.38 34.585 129.727 32.4315 125.688 30.8364C123.882 30.1231 122.024 29.6289 120.199 28.9857C118.349 28.3337 116.506 27.8229 114.57 27.5575C110.664 27.0219 106.714 26.8118 102.788 27.1979C100.412 27.4315 98.1698 27.9861 95.8732 28.6433C93.8157 29.2321 91.7589 29.7826 89.799 30.6822C88.0857 31.4686 86.467 32.2861 84.9668 33.4703C84.8441 33.5672 83.7875 34.6706 84.2249 34.6348C85.4097 34.538 86.7837 33.6015 87.8414 33.1272C89.1781 32.5278 90.647 31.6369 92.0896 31.3466C92.2185 31.3206 90.9445 32.8321 90.809 33.1752C90.5388 33.8597 92.1114 33.1028 90.8691 33.8188C90.4463 34.0626 89.2907 34.6764 88.9561 34.8587C88.684 35.0069 86.5101 35.9145 86.3818 36.3673C86.3465 36.4919 86.6218 36.3181 86.7382 36.2792C87.0736 36.1668 87.4026 36.0334 87.7358 35.9137C89.1245 35.415 90.5163 34.9382 91.9392 34.562C94.1583 33.9752 90.9003 35.2497 90.5876 35.3747C89.9465 35.631 89.0115 35.9903 88.3479 36.2072C88.0987 36.2887 87.8481 36.3672 87.5929 36.424C87.0644 36.5415 87.2345 36.4006 87.6372 36.2241C88.4179 35.8818 89.4136 35.5789 90.2066 35.3527C90.6317 35.2314 91.0586 35.1158 91.4897 35.0216C92.276 34.8498 91.8056 35.0586 91.4399 35.1946C89.8094 35.801 88.0241 36.4576 86.3014 36.6779C85.9943 36.7172 85.9757 36.2919 85.4621 36.2578C85.2912 36.2464 84.7984 36.4105 84.9532 36.3323C85.5876 36.0116 86.2619 35.8023 86.8908 35.4661C88.0302 34.8569 89.1 34.1535 90.304 33.6893C92.0519 33.0153 93.8853 32.5711 95.6822 32.0764C97.561 31.5591 99.4692 31.0325 101.402 30.8043C101.547 30.7872 103.238 30.8711 103.157 30.9258C102.95 31.0637 102.055 31.3567 101.999 31.3754C100.47 31.8864 98.9263 32.3523 97.3923 32.8477C95.9599 33.3102 91.6283 34.5421 93.0997 34.2513C95.7895 33.7198 98.4279 32.9061 101.115 32.366C104.283 31.729 107.431 31.6653 110.587 32.3919C112.118 32.7445 113.636 33.1441 115.177 33.447C115.94 33.597 116.777 33.8143 117.559 33.7129C117.961 33.6607 118.038 33.4714 117.701 33.2108C117.279 32.8841 117.127 32.8625 116.492 32.6721C113.859 31.8829 111.153 31.341 108.475 30.7664C107.562 30.5705 106.639 30.4246 105.73 30.2053C105.477 30.1442 106.231 30.0399 106.49 30.0171C108.254 29.8619 110.04 29.8983 111.802 30.0757C116.452 30.5443 120.826 32.6617 125.167 34.3543C125.742 34.5786 125.366 34.262 125.103 34.0602C124.386 33.5094 123.606 33.0202 122.785 32.6672C121.816 32.2501 120.69 31.9888 119.648 31.9037C119.503 31.892 117.586 31.8899 117.926 32.4489C118.404 33.2342 120.021 33.4929 120.774 33.7353C121.961 34.1178 123.145 34.5085 124.315 34.9484C126.1 35.6197 127.911 36.4343 129.624 37.2963C130.515 37.7448 131.642 38.2267 132.367 38.9542" stroke="black" stroke-width="3" stroke-linecap="round"/>
<path d="M137.798 42.1866C135.213 39.8604 132.528 37.4456 129.209 36.0515C128.234 35.642 127.07 35.5535 126.136 35.0993C125.42 34.7512 127.735 35.4044 128.461 35.7345C130.107 36.4824 131.681 37.3516 133.303 38.138C137.479 40.1618 141.242 42.8196 144.552 45.9336C145.552 46.8744 146.511 47.8575 147.622 48.6822C148.384 49.2474 149.212 50.1728 148.989 51.1504C148.845 51.7803 147.616 50.7372 147.394 50.6002C146.665 50.1517 145.846 49.8592 145.107 49.4286C144.078 48.8291 143.17 48.0443 142.319 47.2451C141.107 46.1077 139.841 45.134 138.466 44.1779C137.164 43.2733 135.826 42.4608 134.437 41.6777C132.698 40.6978 131.003 39.5323 129.063 38.9161C128.819 38.8387 128.132 38.549 127.857 38.6834C127.569 38.8249 129.156 39.864 129.165 39.8701C131.024 41.0624 133.061 41.8112 135.014 42.8248C136.7 43.6995 138.316 44.7567 139.752 45.9581C141.252 47.2122 142.609 48.5482 144.308 49.5752C145.715 50.4255 146.983 51.2398 148.697 51.3813C149.231 51.4253 149.89 51.1489 149.982 50.598C150.127 49.7274 149.348 48.8027 149.418 50.243C149.469 51.271 149.174 52.1843 147.84 51.9591C147.429 51.8897 145.985 51.5379 147.236 51.9337C148.376 52.2944 149.026 51.1091 148.773 50.1841C148.366 48.7028 146.699 47.3533 145.533 46.357C144.574 45.5382 143.508 44.8464 142.47 44.1217C140.719 42.9008 138.964 41.6647 136.935 40.8757" stroke="black" stroke-width="3" stroke-linecap="round"/>
<line y1="-0.5" x2="84.9188" y2="-0.5" transform="matrix(0.677655 0.73538 -0.690537 0.723297 172.809 124.895)" stroke="black"/>
<line y1="-0.5" x2="86.3247" y2="-0.5" transform="matrix(-0.690426 -0.723403 0.677767 -0.735276 206.72 212.541)" stroke="black"/>
<path d="M169.001 128.001C168.99 127.982 169.105 128.249 169.155 128.312C169.542 128.797 170 129.21 170.451 129.631C170.912 130.061 171.345 130.568 171.747 131.058C172.049 131.426 172.401 131.736 172.706 132.107C173.187 132.694 173.717 133.249 174.287 133.747C176.36 135.555 178.032 137.764 180.043 139.63C180.616 140.162 181.123 140.757 181.692 141.295C182.178 141.754 182.518 142.327 182.977 142.81C183.491 143.351 184.159 143.692 184.68 144.226C185.152 144.709 185.517 145.299 185.974 145.801C186.482 146.359 187.013 146.87 187.639 147.287C188.413 147.803 188.933 148.562 189.523 149.274C190.012 149.866 190.478 150.462 191.01 151.016C191.237 151.253 192.155 151.62 191.977 152" stroke="black" stroke-width="10" stroke-linecap="square"/>
<path d="M171 141C170.059 140.689 169.11 140.384 168.184 140.056C168.023 139.998 168.092 140 168 140" stroke="black" stroke-width="10" stroke-linecap="square"/>
<path d="M150.058 147.003C150.014 146.993 149.983 147.007 150.01 147.057C150.292 147.57 150.825 147.948 151.218 148.356C151.77 148.93 152.412 149.286 153.021 149.774C154.455 150.924 155.791 152.19 157.162 153.418C157.718 153.916 158.2 154.503 158.58 155.163C158.881 155.684 159.303 156.11 159.607 156.618C160.472 158.062 161.922 159.149 163.091 160.305C164.482 161.679 165.922 163.007 167.281 164.418C168.994 166.197 170.789 167.866 172.524 169.616C173.246 170.344 173.885 171.166 174.638 171.86C175.244 172.419 175.633 173.234 176.177 173.862C176.609 174.36 177.1 174.8 177.535 175.296C177.998 175.824 179.311 177.47 178.932 176.871" stroke="black" stroke-width="10" stroke-linecap="square"/>
<path d="M158.059 143C158.013 143.169 157.934 143.28 158.102 143.407C159.512 144.47 160.761 145.539 161.871 146.943C164.032 149.676 166.48 152.147 168.72 154.812C171.566 158.199 174.57 161.421 177.486 164.743C179.099 166.579 180.644 168.465 182.373 170.189C183.339 171.152 184.377 172.051 185.3 173.058C185.557 173.338 185.839 173.664 186 174" stroke="black" stroke-width="10" stroke-linecap="square"/>
<path d="M166 140C166.03 140.271 166.146 140.375 166.35 140.575C167.248 141.463 168.243 142.244 169.178 143.086C171.397 145.084 173.414 147.276 175.384 149.548C178.055 152.629 180.835 155.552 183.642 158.488C185.829 160.775 187.733 163.284 189.616 165.852C190.66 167.275 191.773 168.755 193 170" stroke="black" stroke-width="10" stroke-linecap="square"/>
<path d="M176 174C175.998 174.024 176.038 174.025 176.057 174.037C176.212 174.136 176.349 174.268 176.482 174.397C177.086 174.982 177.669 175.603 178.238 176.227C179.013 177.076 179.621 178.069 180.542 178.773C181.569 179.558 182.599 180.219 183.511 181.186C184.298 182.022 185.204 182.713 185.998 183.543C187.191 184.792 188.385 186.029 189.527 187.335C192.058 190.229 194.809 192.903 197.422 195.714C198.493 196.866 199.538 198.072 200.748 199.056C201.187 199.413 201.602 199.807 202.012 200.203C202.247 200.431 202.659 201.031 203 200.999" stroke="black" stroke-width="10" stroke-linecap="square"/>
<path d="M188.815 175.998C188.568 175.763 188.321 175.531 188.085 175.283C187.829 175.014 187.512 174.669 187.278 174.377C187.185 174.261 186.894 174.007 187.041 174C187.308 173.988 188.015 175.091 188.16 175.264C188.653 175.852 189.156 176.431 189.669 177.002C192.418 180.062 195.22 183.045 198.248 185.825C200.43 187.828 202.604 189.871 204.892 191.75C205.793 192.49 206.677 193.251 207.578 193.99C208.012 194.346 208.47 194.803 209 195" stroke="black" stroke-width="10" stroke-linecap="square"/>
<path d="M192.003 170C191.989 170.057 192.025 170.093 192.063 170.13C193.037 171.086 193.965 172.095 194.872 173.127C197.135 175.705 199.271 178.419 201.499 181.034C202.478 182.183 203.454 183.335 204.41 184.506C205.736 186.13 207.003 187.867 208.481 189.333C209.034 189.881 209.66 190.416 210.32 190.805C210.687 191.02 210.814 191.106 211 190.806" stroke="black" stroke-width="10" stroke-linecap="square"/>
<path d="M196 169C195.007 169.997 193.836 170.82 192.79 171.756C191.199 173.181 189.759 174.762 188.193 176.209C187.806 176.567 187.452 176.767 187 177" stroke="black" stroke-width="10" stroke-linecap="square"/>
<path d="M190 156C189.998 156.128 190.009 156.252 190.078 156.365C190.478 157.027 191.09 157.607 191.584 158.195C192.777 159.614 193.91 161.073 195.051 162.532C196.377 164.229 197.724 165.925 199.19 167.507C200.328 168.737 201.525 169.915 202.625 171.178C203.812 172.542 204.914 173.975 206.106 175.334C207.403 176.813 208.811 178.209 210.224 179.578C212.104 181.398 213.946 183.373 216 185" stroke="black" stroke-width="10" stroke-linecap="square"/>
<path d="M196.754 154.729C196.789 154.388 197.297 155.094 197.498 155.357C198.672 156.895 199.942 158.305 201.073 159.88C201.183 160.033 201.31 160.179 201.474 160.264C201.523 160.289 201.051 159.401 200.975 159.297C199.737 157.602 198.442 155.962 197.238 154.234C196.803 153.609 196.37 153.053 196.143 152.306C196.123 152.24 195.902 151.883 196.052 152.039C196.387 152.39 196.674 152.801 196.994 153.17C197.794 154.094 198.708 154.903 199.523 155.817C200.452 156.858 201.352 157.926 202.281 158.967C203.13 159.918 203.963 160.899 204.739 161.921C205.618 163.078 206.6 164.076 207.559 165.148C208.574 166.283 209.492 167.344 210.631 168.327C212.007 169.514 213.163 171.054 214.413 172.393C216.598 174.731 219.022 176.746 221.02 179.298C221.32 179.683 221.974 180.322 222 180.87C222.029 181.495 220.158 179.668 220.114 179.622C217.374 176.816 214.514 174.365 211.341 172.162" stroke="black" stroke-width="5" stroke-linecap="round"/>
<line y1="-0.5" x2="34.5478" y2="-0.5" transform="matrix(0.684119 -0.729371 0.684119 0.729371 206.72 212.541)" stroke="black"/>
<path d="M206.658 204.73C206.178 204.688 205.486 205.416 205.748 205.999C205.975 206.504 206.575 205.958 206.669 205.616C206.744 205.345 206.141 205.589 206.064 205.633C205.799 205.785 205.638 206.128 205.492 206.407C205.309 206.756 205.004 207.179 205 207.608C204.999 207.702 205.133 207.756 205.1 207.589C205.075 207.461 204.89 207.09 205.114 207.359C205.314 207.6 205.391 207.883 205.484 208.188C205.522 208.314 205.561 208.488 205.661 208.572C205.677 208.586 205.784 208.569 205.787 208.599C205.795 208.68 205.779 208.755 205.801 208.836C205.826 208.925 205.916 208.96 205.83 209C205.813 209.007 205.844 208.839 205.845 208.836C205.898 208.596 205.985 208.363 206.115 208.164C206.283 207.906 206.506 207.696 206.712 207.48C207.07 207.105 207.408 206.704 207.778 206.345C209.22 204.942 210.572 203.421 212 202" stroke="black" stroke-width="5" stroke-linecap="round"/>
<path d="M209 203C209.02 202.872 209.082 202.756 209.149 202.649C209.722 201.73 210.443 200.933 211.093 200.079C211.16 199.991 211.409 199.7 211.333 199.55C211.203 199.292 210.68 199.547 210.532 199.624C210.138 199.829 209.855 200.114 209.665 200.536C209.561 200.769 209.006 202.088 209.61 202.011C210.158 201.941 210.7 201.534 211.136 201.204C211.798 200.703 212.362 200.103 212.907 199.468C213.219 199.103 213.546 198.754 213.861 198.394C214.187 198.021 214.472 197.594 214.837 197.261C215.095 197.025 215.722 196.832 215.942 197.226C216.249 197.775 215.252 198.438 214.966 198.717C214.335 199.333 213.785 199.957 213.35 200.741" stroke="black" stroke-width="5" stroke-linecap="round"/>
<path d="M205 204C204.903 204.077 204.799 204.132 204.709 204.238C204.55 204.423 204.425 204.669 204.332 204.988C204.318 205.038 204.19 205.517 204.333 205.381C204.535 205.188 204.181 206.037 204.103 205.999C204.035 205.966 204.006 205.589 203.993 205.457C203.984 205.37 203.663 205.554 203.597 205.497C203.544 205.451 203.506 205.412 203.482 205.384C203.438 205.335 203.387 205.359 203.343 205.301C203.291 205.234 203.251 205.117 203.193 205.07C203.158 205.041 203.039 205.067 203 204.913" stroke="black" stroke-width="5" stroke-linecap="round"/>
<path d="M206 202C205.974 201.995 205.974 202.096 205.97 202.152C205.931 202.672 205.808 203.122 205.693 203.519C205.628 203.742 205.55 203.95 205.506 204.215C205.465 204.464 205.431 204.717 205.38 204.953C205.33 205.19 205.264 205.369 205.238 205.645C205.214 205.903 205.199 206.13 205.147 206.352C205.097 206.559 205.066 206.659 205.039 206.899C205.035 206.934 205.002 207.047 205 206.978" stroke="black" stroke-width="5" stroke-linecap="round"/>
<path d="M213 195.411C214.609 193.719 215.71 191.424 217.849 190.3C218.122 190.156 219.971 189.375 219.778 190.282C219.697 190.665 219.444 190.998 219.213 191.303C218.891 191.727 218.519 192.085 218.137 192.454C217.607 192.967 217.012 193.536 216.712 194.223C216.643 194.381 216.501 194.753 216.7 194.884C216.93 195.036 217.321 194.603 217.457 194.484C218.143 193.884 218.807 193.244 219.368 192.524C219.593 192.236 219.815 191.94 220.088 191.695C220.16 191.629 220.556 191.265 220.684 191.358C220.73 191.392 219.718 192.506 219.632 192.605C219.147 193.161 218.739 193.765 218.28 194.34C217.957 194.745 217.608 195.125 217.253 195.501C217.072 195.692 216.864 195.881 216.715 196.101C216.67 196.168 216.647 196.249 216.625 196.326C216.576 196.496 216.777 196.006 216.862 195.851C217.293 195.068 218.09 194.457 218.793 193.934C219.019 193.766 219.295 193.511 219.57 193.424C219.611 193.411 219.527 193.5 219.499 193.534C219.352 193.712 219.2 193.887 219.047 194.06C218.427 194.761 217.869 195.51 217.259 196.217C217.092 196.411 216.923 196.604 216.754 196.797C216.603 196.969 216.436 197.147 216.615 196.806C217.08 195.917 217.826 195.142 218.541 194.452C219.399 193.625 220.283 192.832 221.114 191.975C221.728 191.341 222.435 190.809 223.061 190.188C223.549 189.705 223.959 189.153 224.461 188.684C225.119 188.068 225.721 187.388 226.374 186.771C226.464 186.686 226.596 186.574 226.71 186.519C226.763 186.494 226.818 186.405 226.86 186.395C226.981 186.363 227.079 186.417 226.909 186.377C226.792 186.35 226.691 186.249 226.594 186.184C226.381 186.043 226.154 185.92 225.954 185.76C225.602 185.478 225.321 185.066 225.069 184.696C224.844 184.365 224.528 184.112 224.315 183.774C224.019 183.304 223.652 182.9 223.246 182.522C223.092 182.378 222.934 182.24 222.776 182.102C222.547 181.9 222.567 182.016 222.514 182.292C222.282 183.5 221.928 184.692 221.638 185.887C221.449 186.668 221.324 187.493 221.066 188.255" stroke="black" stroke-width="5" stroke-linecap="round"/>
<path d="M241.144 197.751C245.768 202.133 246.282 209.802 243.559 214.909C236.52 225.063 226.948 233.607 216.972 225.063C212.211 221.369 208.821 221.14 227.098 202.861C239.603 190.356 236.52 193.368 241.144 197.751Z" fill="black"/>
<path d="M168.502 134.196C171.639 138.358 175.351 142.115 178.582 146.217C179.467 147.342 182.12 150.673 181.008 149.736C179.112 148.141 176.872 146.402 175.393 144.451C173.11 141.441 171.627 137.955 169.667 134.769C169.436 134.393 168.728 133 168.114 133C167.886 133 169.709 136.117 169.721 136.136C171.519 138.9 173.798 141.83 176.848 143.553C177.703 144.036 175.768 141.991 175.215 141.219C173.845 139.309 172.458 137.415 170.917 135.618C169.286 133.716 171.58 136.36 171.892 136.678C175.203 140.055 178.708 143.271 182.085 146.593C182.931 147.425 185.462 149.923 184.565 149.137C182.658 147.467 180.92 145.594 179.199 143.763C177.59 142.052 175.917 140.263 174.634 138.323C172.964 135.797 178.658 142.927 180.648 145.246C182.05 146.88 183.473 148.498 184.866 150.139C185.336 150.691 185.819 151.235 186.252 151.812C186.377 151.978 186.729 152.451 186.534 152.359C186.081 152.146 185.763 151.745 185.403 151.412C183.079 149.265 177.07 142.016 179.093 144.411C181.365 147.1 183.517 149.873 185.838 152.529C186.862 153.701 186.884 153.701 187.846 154.77C188.067 155.015 188.296 155.252 188.503 155.507C188.552 155.567 188.689 155.74 188.612 155.712C188.422 155.64 188.278 155.489 188.124 155.364C185.21 152.988 182.696 150.22 180.357 147.363C179.822 146.709 179.356 146.003 178.771 145.386C177.941 144.512 180.09 147.368 180.795 148.331C182.109 150.129 182.843 151.079 184.196 152.86C184.208 152.877 187.043 156.144 186.784 156.548C186.512 156.975 181.383 151.641 181.107 151.3C180.143 150.111 178.94 148.446 178.073 147.206C177.647 146.595 177.236 145.975 176.82 145.358C176.458 144.82 175.565 143.14 175.712 143.758C175.897 144.534 176.481 145.179 176.884 145.88C177.626 147.169 178.553 148.491 179.09 149.875C179.219 150.209 179.2 150.469 178.785 150.093C177.173 148.63 175.885 146.645 174.654 144.927C173.237 142.951 172.444 141.746 171.13 139.73C170.149 138.223 169.248 136.465 168.027 135.093C167.77 134.805 167.549 134.702 167.569 135.174C167.62 136.389 168.077 137.668 168.36 138.845C168.523 139.519 169.082 141.52 168.814 140.875C168.373 139.812 168.092 138.641 167.747 137.553C167.684 137.355 167.044 135.31 166.896 134.896C166.848 134.762 166.868 134.465 166.723 134.505C166.572 134.547 166.719 134.796 166.734 134.941C166.769 135.292 166.822 135.642 166.873 135.991C167.305 138.902 166.94 136.198 167.393 139.297C167.481 139.904 167.96 141.629 167.684 142.317C167.591 142.549 167.421 141.884 167.325 141.653C166.821 140.429 166.342 139.195 165.791 137.988C165.549 137.458 165.477 136.745 164.943 136.45C164.86 136.404 164.825 136.602 164.818 136.691C164.779 137.151 164.971 138.602 165.002 138.883C165.112 139.906 165.223 140.822 165.266 141.847C165.281 142.192 165.306 142.539 165.269 142.882C165.214 143.39 165.044 143.303 164.806 142.937C164.621 142.651 163.837 141.025 163.738 140.831C163.413 140.194 162.717 138.389 162.491 139.061C162.367 139.432 162.612 141.037 162.624 141.128C162.752 142.112 162.869 143.141 163.126 144.109C163.441 145.296 162.62 141.71 162.367 140.511C162.246 139.934 162.308 140.121 162.488 140.6C162.989 141.938 163.461 143.288 163.938 144.634C164.197 145.363 164.434 146.098 164.71 146.822C164.881 147.269 164.51 145.891 164.4 145.427C164.277 144.904 163.72 144.047 164.248 143.826C164.432 143.749 164.63 143.979 164.768 144.115C165.323 144.66 167.048 146.946 167.352 147.341C169.44 150.05 171.509 152.781 173.692 155.427C173.848 155.617 173.451 155.006 173.32 154.801C171.853 152.502 170.419 150.181 169.111 147.801C168.745 147.134 168.388 146.462 168.072 145.774C167.952 145.514 167.62 145.186 167.806 144.961C167.959 144.776 168.168 145.288 168.32 145.474C168.801 146.064 170.23 148.14 170.529 148.562C173.509 152.776 176.761 156.845 179.641 161.116C180.196 161.938 180.835 163.189 179.223 161.817C177.474 160.329 176.051 158.508 174.821 156.638C174.752 156.533 173.497 154.526 173.435 154.028C173.422 153.93 173.672 154.005 173.752 154.07C174.443 154.634 176.135 156.765 176.424 157.119C179.302 160.645 182.246 164.156 185.016 167.754C185.231 168.033 185.803 168.876 185.499 168.68C183.505 167.395 181.61 164.301 180.376 162.577C180.095 162.183 177.564 158.718 177.334 157.504C177.007 155.783 180.157 159.848 181.341 161.21C183.548 163.75 185.978 166.19 188.092 168.792C189.412 170.417 184.893 165.99 183.517 164.405C181.108 161.629 179.358 158.486 177.092 155.636C175.146 153.187 180.185 161.012 182.012 163.539C183.176 165.151 183.995 166.157 185.22 167.683C185.791 168.395 187.648 170.264 186.76 169.93C186.247 169.737 184.854 168.522 184.735 168.42C182.782 166.742 181.002 164.918 179.278 163.041C176.612 160.139 174.129 157.105 170.992 154.612C168.894 152.943 166.548 151.576 164.391 149.978C162.667 148.702 161.129 147.141 159.274 146.024C159.058 145.894 157.189 144.929 157.107 145.736C157.064 146.167 157.515 146.995 157.669 147.258C158.677 148.978 160.005 150.549 161.319 152.072C162.966 153.979 168.17 159.5 166.475 157.629C164.426 155.366 162.368 153.11 160.344 150.828C158.825 149.115 157.36 147.3 155.63 145.761C154.997 145.198 154.389 144.87 155.118 145.892C156.477 147.797 158.133 149.507 159.613 151.33C159.682 151.414 162.297 154.82 161.051 154.045C159.387 153.011 158.02 151.604 156.366 150.548C155.567 150.037 152.794 148.19 151.639 149.014C151.339 149.228 151.044 149.865 151.119 150.187C151.195 150.511 151.792 151.343 151.702 151.023C151.58 150.588 151.107 150.197 150.754 149.921C150.077 149.391 149.459 148.851 150.229 149.927C150.525 150.341 150.846 150.739 151.131 151.159C151.208 151.272 150.56 150.596 150.475 150.515C150.37 150.415 149.417 149.475 149.187 149.729C148.912 150.033 150.252 151.418 150.449 151.641C150.844 152.087 150.862 152.024 150.501 151.637C150.098 151.204 149.653 150.731 149.136 150.411C148.489 150.01 150.333 151.348 150.806 151.919C150.997 152.149 150.295 151.582 150.046 151.406C149.165 150.785 149.954 151.701 150.215 151.962C152.506 154.248 154.853 156.53 156.88 159.03C157.891 160.278 159.263 161.224 160.289 162.454C161.34 163.713 162.688 164.726 163.791 165.943C166.393 168.812 168.951 171.673 171.645 174.463C173.291 176.167 174.755 178.003 176.423 179.692C178.17 181.461 180.165 183.003 181.713 184.932C183.216 186.804 185.113 188.349 186.72 190.13C187.69 191.206 188.816 192.143 189.797 193.205C190.902 194.401 191.683 196.023 193 197" stroke="black" stroke-width="3" stroke-linecap="round"/>
<path d="M192 154C189.408 152.132 187.192 149.222 185.122 146.935C181.368 142.785 177.91 138.45 174.32 134.181C173.176 132.821 172.179 131.32 171 130" stroke="black" stroke-width="3" stroke-linecap="round"/>
<path d="M193 194.059C193.048 194.38 193.464 194.662 193.627 194.927C194.195 195.848 194.502 196.859 194.987 197.812C195.75 199.312 193.237 196.355 193.798 197.219C194.224 197.875 194.75 198.483 195.237 199.1C195.675 199.656 194.115 198.212 193.526 197.805C192.671 197.213 194.321 198.864 194.45 198.978C195.271 199.7 196.05 200.387 196.768 201.202C198.376 203.03 200.073 204.871 201.839 206.556C203.288 207.939 204.817 209.29 206.199 210.733C206.231 210.767 206.474 211.08 206.436 210.981C206.259 210.527 207.982 208.923 208.25 208.657C209.457 207.462 210.518 206.235 211.778 205.104C212.84 204.152 213.87 203.139 214.889 202.145C216.935 200.148 218.691 197.895 220.496 195.702C221.311 194.712 222.227 193.799 223.048 192.811C223.738 191.981 224.418 191.11 225.251 190.407C225.893 189.864 226.474 189.266 227.116 188.723C227.397 188.486 228.061 188.086 228.105 187.688C228.182 187.005 227.637 186.243 227.174 185.767C226.049 184.609 225.044 183.508 224.047 182.234C223.435 181.452 221.616 179.107 222.315 179.817C223.971 181.499 225.539 183.267 227.136 184.999C227.683 185.593 229.511 187.192 228.863 186.702C227.929 185.997 226.825 185.452 225.776 184.933C223.352 183.734 221.5 182.307 219.632 180.404C219.491 180.26 219.071 179.818 218.856 179.665C218.556 179.451 218.847 179.873 218.861 179.895C219.615 181.078 220.636 182.143 221.612 183.153C222.537 184.111 223.511 185.024 224.51 185.909C225.167 186.491 223.198 184.742 222.553 184.149C220.947 182.671 219.371 181.168 217.832 179.626C217.712 179.506 216.643 178.413 216.405 178.233C215.768 177.752 217.102 179.651 217.574 180.284C219.102 182.331 220.787 184.239 222.671 185.989C223.733 186.977 223.199 186.461 224 187.174C224.3 187.441 223.347 186.699 223.035 186.444C219.267 183.369 216.236 179.684 212.723 176.377C212.581 176.243 212.128 175.909 212.215 176.08C212.475 176.596 213.366 177.546 213.617 177.814C214.7 178.974 215.647 179.879 216.84 180.946C217.335 181.389 217.839 181.823 218.355 182.244C218.66 182.492 218.974 182.731 219.302 182.952C219.424 183.034 219.56 183.2 219.7 183.15C220.055 183.024 219.297 182.528 219.049 182.252C218.616 181.767 216.623 179.661 216.397 179.421C213.229 176.06 210.078 172.685 206.878 169.353C205.46 167.877 203.988 166.444 202.615 164.928C200.496 162.589 207.172 169.321 209.331 171.626C212.205 174.694 207.091 169.922 206.969 169.799C204.147 166.938 201.529 163.907 199.047 160.77C198.562 160.157 198.029 159.477 197.535 158.862C197.143 158.373 196.904 158.097 197.335 158.602C200.506 162.31 203.751 165.954 207.272 169.359C207.887 169.954 209.065 171.034 209.727 171.696C210.184 172.152 210.036 172.079 209.592 171.695C206.554 169.063 203.914 166.044 201.37 162.974C199.745 161.014 198.217 158.965 196.514 157.067C196.015 156.511 194.514 155.13 195.738 156.793C199.23 161.536 203.928 165.105 207.972 169.343C208.097 169.474 208.434 169.897 208.3 169.775C207.824 169.344 207.05 168.486 206.709 168.103C204.526 165.656 202.574 163.057 200.84 160.296C200.376 159.557 198.97 157.351 199.491 158.054C201.11 160.237 202.894 162.302 204.626 164.401C205.525 165.49 206.497 166.586 207.23 167.792C207.527 168.28 206.934 167.632 206.843 167.534" stroke="black" stroke-width="3" stroke-linecap="round"/>
<path d="M208.599 185.238C208.674 186.047 209.132 186.645 209.583 187.325C209.86 187.743 210.643 188.986 210.52 188.504C210.243 187.422 209.587 186.468 209.145 185.441C209.099 185.335 207.577 181.966 209.306 183.321C210.515 184.268 211.423 185.774 212.172 187.068C212.396 187.456 212.82 188.263 212.966 188.749C213.069 189.095 212.92 189.024 212.751 188.828C211.776 187.697 211.075 186.306 210.27 185.061C210.065 184.745 209.508 183.89 209.217 183.549C209.014 183.31 208.908 183.295 209.033 183.642C209.615 185.248 210.631 186.699 211.384 188.228C211.779 189.028 212.526 190.419 211.02 189.72C210.98 189.701 210.032 189.14 209.8 189.286C209.342 189.573 209.694 190.355 209.78 190.88C210.002 192.241 210.123 192.404 210.274 193.761C210.324 194.218 210.535 194.801 210.215 195.138C210.147 195.21 209.64 193.975 210.477 194.355C211.406 194.777 211.915 196.173 211.889 197.099C211.876 197.544 211.255 198.098 211.294 197.403C211.321 196.908 211.458 197.827 211.092 198.18C210.519 198.733 210.068 197.947 210.197 197.443C210.337 196.894 210.987 196.396 211.028 197.334C211.07 198.31 210.469 199.456 209.592 199.946C208.545 200.531 207.487 199.875 206.89 199.011C206.709 198.749 205.798 196.919 206.854 196.983C208.725 197.098 209.358 200.898 206.859 199.805C206.401 199.605 204.142 197.698 204.874 197.041C205.706 196.294 206.839 199.618 206.775 200.068C206.499 202.003 204.558 200.436 204.004 199.733C202.935 198.378 202.096 196.608 201.724 194.935C201.546 194.136 201.61 193.105 202.683 193.829C204.195 194.849 205.402 196.558 206.377 198.044C206.733 198.587 207.483 200.139 206.862 199.92C205.705 199.511 204.641 198.183 203.86 197.331C202.907 196.292 201.991 195.174 201.241 193.983C200.874 193.401 200.943 193.51 201.335 193.656" stroke="black" stroke-width="3" stroke-linecap="round"/>
<path d="M207.631 201.605C207.018 202.826 207.79 200.839 207.837 200.699C208.421 198.973 207.27 200.934 207 201.345" stroke="black" stroke-width="3" stroke-linecap="round"/>
<path d="M171.001 125.05C170.99 125.058 171.108 124.994 171.146 125C171.294 125.023 171.428 125.263 171.486 125.343C171.986 126.037 172.465 126.743 172.991 127.421C173.653 128.277 174.512 128.91 175.241 129.707C176.632 131.228 177.9 132.932 179.096 134.591C179.231 134.779 179.625 135.34 179.535 135.131C179.25 134.462 178.464 133.833 177.99 133.287C176.619 131.707 175.254 130.107 173.92 128.5C173.257 127.701 171.678 125.052 172.149 125.96C173.331 128.239 175.811 129.997 177.547 131.888C178.406 132.824 179.174 133.702 179.931 134.689C180.509 135.443 181.594 136.563 182.489 136.987C183.732 137.575 185.006 139.534 186.029 140.646C187.681 142.443 189.549 144.057 191.228 145.831C192.224 146.883 193.146 147.997 194.089 149.089C195.29 150.481 196.671 151.716 198 153" stroke="black" stroke-width="3" stroke-linecap="round"/>
<path d="M104.502 29.0278C104.442 28.9591 104.239 29.0377 104.178 29.0506C103.202 29.2585 102.219 29.4199 101.246 29.644C99.9539 29.9417 98.8257 30.2212 97.589 30.659C97.2594 30.7756 96.3775 31.1914 96.7306 31.2197C97.9572 31.3179 99.4703 30.862 100.662 30.6864C102.4 30.4304 104.159 30.1363 105.924 30.0824C106.248 30.0725 107.214 30.0974 106.894 30.1441C105.732 30.3136 104.511 30.2516 103.339 30.3423C100.124 30.5912 96.7352 31.0091 93.6775 31.9626C93.0366 32.1624 93.1853 32.2307 93.7049 32.1713C95.5898 31.9556 97.462 31.5514 99.3211 31.2103C100.608 30.9741 101.91 30.7627 103.187 30.4832C103.462 30.4229 103.686 30.3789 103.279 30.3743C102.659 30.3672 101.984 30.4264 101.384 30.4931C99.3921 30.7145 97.415 31.0718 95.4727 31.5212C94.5385 31.7373 93.3671 32.0491 92.4565 32.3827C92.4169 32.3972 91.1816 32.8814 91.0379 33.0921C90.9955 33.1544 91.1653 33.2036 91.2469 33.2063C91.7666 33.2233 93.2433 32.9197 93.5425 32.8632C95.5398 32.4858 97.5258 32.0654 99.535 31.739C101.004 31.5004 102.49 31.2912 103.981 31.1981C104.291 31.1787 105.434 31.1538 104.38 31.3806C101.524 31.9946 98.6516 32.5448 95.7981 33.1728C95.2444 33.2947 96.9204 32.9902 97.4834 32.909C100.287 32.5043 103.146 32.241 105.988 32.4391C107.528 32.5465 108.121 32.8839 106.306 33.1649C105.411 33.3035 103.903 33.3945 102.991 33.4556C102.445 33.4921 101.86 33.3905 101.356 33.5788C100.7 33.8233 102.776 33.5794 103.486 33.5902C105.255 33.6171 107.031 33.7116 108.792 33.8623C109.198 33.897 110.069 33.9836 109.011 34.0175C107.437 34.0679 105.862 34.036 104.288 34.0987C103.352 34.136 100.547 34.2165 101.482 34.2589C103.186 34.3359 105.012 34.0455 106.713 33.9618C108.045 33.8962 109.381 33.8574 110.711 33.7729C110.803 33.7671 111.063 33.7894 110.986 33.7437C110.568 33.4949 109.982 33.7213 109.48 33.7222C104.923 33.7299 100.372 33.9408 95.8503 34.4542C95.0547 34.5445 97.4432 34.2858 98.2417 34.2195C101.094 33.9828 103.955 33.848 106.82 33.886C107.307 33.8925 107.793 33.9056 108.279 33.9274C108.572 33.9405 108.864 33.9627 109.156 33.9908C109.297 34.0043 109.519 33.9358 109.575 34.0522C109.624 34.1525 109.337 34.1042 109.215 34.1145C108.792 34.1505 108.368 34.1691 107.943 34.1908C106.031 34.2884 105.154 34.3075 103.2 34.4106C100.995 34.5269 98.8033 34.6935 96.6139 34.953C95.4386 35.0923 91.933 35.6326 93.1023 35.4577C94.0924 35.3097 95.0742 35.0828 96.0559 34.899C96.868 34.747 97.4891 34.6337 98.2825 34.5034C98.981 34.3887 98.531 34.4729 98.2731 34.518C96.9109 34.7562 95.5493 34.9897 94.1966 35.2696C92.6958 35.5802 91.1843 36.1045 89.6715 36.345C89.0357 36.446 90.8945 35.9739 91.5113 35.8031C91.5429 35.7943 93.7327 35.2326 92.2453 35.7447C90.6999 36.2768 89.1362 36.8163 87.5727 37.3032C86.8673 37.5229 90.2955 36.2321 89.6687 36.595C89.1639 36.8872 88.5362 37.0628 87.9776 37.2421C87.9031 37.266 86.4334 37.6632 86.5488 37.5825C87.0102 37.26 87.6411 37.0443 88.1769 36.8559C88.4197 36.7706 89.054 36.5637 89.3649 36.5366C89.6833 36.5088 89.419 36.7009 89.3461 36.746C88.7552 37.1112 88.024 37.3379 87.349 37.5359C86.8829 37.6727 85.5218 38.194 85.0171 37.9231C84.8114 37.8127 86.5174 36.2625 87.0045 36.5009C87.3604 36.6751 85.5016 37.7337 85.1236 37.6964C84.9022 37.6745 85.3854 37.3629 85.5715 37.2535C85.9299 37.0428 86.2846 36.9169 86.6757 36.7812" stroke="black" stroke-width="3" stroke-linecap="round"/>
<path d="M129.185 38.5902C129.267 38.4148 129.301 38.2893 129.101 38.1632C128.749 37.941 128.071 37.6734 127.757 37.5426C126.365 36.9622 124.961 36.4065 123.566 35.8318C121.423 34.949 119.285 33.9668 117.011 33.411C116.389 33.2589 116.797 33.402 117.136 33.5294C118.026 33.8635 118.912 34.218 119.786 34.5863C122.44 35.7044 125.072 37.1899 127.432 38.7923C128.457 39.4888 129.605 40.6803 130.875 40.9916C131.135 41.0554 130.824 40.6387 130.788 40.5865C130.394 40.0178 129.884 39.5264 129.37 39.0538C126.773 36.6667 123.759 34.8963 120.556 33.3075C119.268 32.6684 117.934 32.1053 116.662 31.4377C116.559 31.3837 114.692 30.3996 115.044 30.1004C115.388 29.8079 116.701 30.2395 117.045 30.32C118.132 30.574 119.189 30.9183 120.24 31.2792C122.387 32.0164 124.53 32.8726 126.543 33.8986C129.605 35.4602 132.18 37.7104 135.035 39.5629C135.855 40.0946 136.874 40.8229 137.855 41.0518C138.053 41.0982 137.324 40.4782 137.266 40.4345C136.364 39.7479 135.392 39.1334 134.428 38.5277C131.64 36.7751 128.706 35.2746 125.851 33.63C125.477 33.4147 124.446 32.7536 124.882 32.7946C126.129 32.9118 127.484 33.7085 128.535 34.2536C132.765 36.4464 137.109 38.602 140.492 41.9011C140.955 42.3527 141.565 42.6524 142.042 43.099C143.06 44.0514 143.675 45.2739 144.501 46.3615C145.125 47.1838 145.83 47.9461 146.386 48.8138C146.429 48.8803 146.949 49.5871 146.56 49.3123C145.802 48.7766 145.083 48.1845 144.344 47.6264C143.206 46.7678 142.106 45.8851 141.066 44.9231C140.284 44.2005 139.505 43.4641 138.544 42.9496C138.039 42.6789 137.605 42.6471 138.105 43.2216C139 44.25 140.072 45.181 141.09 46.0998C142.528 47.398 144.229 48.3912 145.863 49.457C146.845 50.0978 148.053 50.9761 147.998 52.2348C147.959 53.1489 147.541 52.937 146.843 52.5074C145.577 51.7294 144.378 50.834 143.334 49.8048C142.836 49.3138 141.549 47.6734 141.994 48.2072C142.238 48.4998 142.358 48.9713 142.57 49.2917C143.116 50.1151 143.773 50.8328 144.532 51.4882C145.192 52.0585 146.285 53.1141 147.313 52.9544C147.741 52.888 147.948 53.1051 147.459 52.9302" stroke="black" stroke-width="3" stroke-linecap="round"/>
<path d="M4.16601 159.907C3.65097 160.449 4.4677 158.477 4.80962 157.83C5.55438 156.419 6.92778 155.692 8.36848 154.948C10.2702 153.966 12.3631 153.224 14.3776 152.462C16.2496 151.755 18.0857 150.939 19.9969 150.323C24.1843 148.972 28.4928 147.951 32.7258 146.735C37.3664 145.402 41.9358 143.857 46.6848 142.877C57.4128 140.664 68.322 139.842 79.2749 139.26C85.3852 138.935 91.4353 138.998 97.5533 139.02C101.997 139.037 106.462 139.147 110.896 139.445C113.201 139.6 115.755 139.608 118 140.124" stroke="black" stroke-width="8" stroke-linecap="round"/>
<path d="M5.07401 159.034C5.16662 158.856 5.00504 159.424 5.00045 159.621C4.96165 161.286 7.43771 162.293 8.70366 163.136C12.348 165.562 16.844 167.113 21.0666 168.542C31.4146 172.045 42.2926 174.434 53.1915 175.952C55.7401 176.307 58.2537 176.771 60.8309 176.95C63.5617 177.14 66.3125 177.144 69.0488 177.242C71.9363 177.346 74.7565 177.808 77.5957 178.265C80.7408 178.772 83.9004 178.997 87.0865 179.144C92.3055 179.385 97.5252 179.62 102.742 179.881C108.449 180.167 114.523 180.029 120 178.431" stroke="black" stroke-width="8" stroke-linecap="round"/>
<path d="M4.83186 159C4.58895 159.382 4.61631 159.725 4.61277 160.166C4.60045 161.699 4.4051 163.227 4.21537 164.749C4.04918 166.083 3.9121 167.352 4.06916 168.698C4.51098 172.482 3.74 176.373 4.58206 180.116C5.42191 183.85 5.33216 187.805 5.82557 191.59C5.9893 192.847 6.30064 194.021 6.75053 195.213C6.86637 195.52 7.96265 197.382 8 196.93" stroke="black" stroke-width="8" stroke-linecap="round"/>
<path d="M115.413 216.002C118.208 216.039 110.262 218.118 107.533 218.685C103.815 219.458 100.03 219.756 96.2357 219.877C91.1337 220.038 86.1929 220.185 81.1252 219.323C76.1285 218.472 71.2425 217.371 66.3838 215.981C61.135 214.479 55.9255 212.938 50.8706 210.923C46.1081 209.025 41.4217 206.969 36.6868 205.012C31.621 202.919 26.3982 201.148 21.1326 199.553C18.0169 198.609 14.9457 197.424 11.65 197.142C10.7348 197.064 9.81906 197.051 8.90126 197.029C8.77629 197.026 7.93653 196.956 8.00383 197.044" stroke="black" stroke-width="8" stroke-linecap="round"/>
<path d="M108 230.854C107.787 230.193 103.306 231.451 102.437 231.499C100.049 231.631 97.6869 232.014 95.289 232C91.235 231.974 87.1516 231.065 83.1624 230.489C80.0067 230.033 76.8191 229.789 73.6667 229.322C62.6826 227.694 51.6591 226.884 40.9156 224.088C37.8385 223.287 34.7098 222.577 31.6534 221.716C29.3584 221.07 27.0909 220.258 24.7474 219.77C23.0858 219.424 21.4644 219.069 19.8669 218.514C17.377 217.65 14.9941 216.557 12.519 215.656C10.9833 215.096 9.44886 214.721 8.22242 213.666C7.75044 213.26 7.30558 212.6 7.28788 211.993C7.24231 210.432 7.23397 208.913 7.05391 207.356C6.88674 205.909 7.10408 204.55 7.76589 203.221C8.22039 202.308 8.85728 200.307 10.0481 200" stroke="black" stroke-width="8" stroke-linecap="round"/>
<path d="M6.06911 213.349C6.06911 211.668 4.50805 216.515 4.20064 218.179C3.75894 220.57 4.15975 222.948 4.32918 225.341C4.71406 230.777 4.07614 236.181 5.78735 241.515C6.32157 243.181 6.78465 244.727 7.96945 246.191C8.09282 246.343 9.14825 247.226 8.98236 247.549C8.97921 247.555 8.62195 247.828 8.5628 247.902C7.71051 248.963 7.42798 250.401 7.25271 251.613C6.88367 254.166 6.87747 257.254 8.72219 259.471C8.8131 259.581 8.15015 260.251 8.09799 260.325C6.86703 262.076 6.56003 264.206 6.54265 266.165C6.49279 271.788 6.88101 277.389 6.66554 283.017C6.57694 285.331 6.33917 287.709 6.49895 290.021C6.58668 291.291 7.79662 295.003 7.57766 293.743" stroke="black" stroke-width="8" stroke-linecap="round"/>
<path d="M107.745 265.678C108.424 265.603 107.563 265.711 107.295 265.769C104.041 266.482 100.969 266.994 97.6196 266.999C93.1312 267.006 88.6091 266.99 84.1707 266.282C74.4587 264.731 64.8489 262.556 55.5842 259.432C53.7039 258.798 51.7327 258.363 49.806 257.862C47.6147 257.292 45.549 256.423 43.4476 255.631C41.385 254.854 39.2288 254.339 37.0944 253.759C34.8863 253.159 32.8277 252.335 30.6702 251.616C25.7991 249.993 21.0733 247.844 15.8511 247.407C15.1855 247.351 8.93833 246.823 9.00046 247.061" stroke="black" stroke-width="8" stroke-linecap="round"/>
<path d="M105 279.019C104.978 279.06 104.804 279.05 104.777 279.053C103.649 279.173 102.521 279.652 101.428 279.918C98.7595 280.568 95.8487 280.685 93.1048 280.9C89.9541 281.146 86.5353 280.906 83.4044 280.53C79.6785 280.083 75.9546 279.617 72.2299 279.158C70.2183 278.911 68.1885 278.812 66.1834 278.512C63.4599 278.106 60.7867 277.419 58.0799 276.928C47.8252 275.07 37.7219 272.73 27.9374 269.302C23.4451 267.728 18.9869 265.461 14.9274 263.092C12.5687 261.716 9.83362 259.96 8 258" stroke="black" stroke-width="8" stroke-linecap="round"/>
<path d="M7.8167 294C7.56642 294.74 6.93257 295.469 6.6351 296.219C6.03282 297.738 5.92188 298.938 6.0443 300.507C6.25333 303.186 7.14658 305.757 8.94014 307.936C9.13654 308.174 9.57559 308.391 9.45432 308.688C9.05422 309.67 9.04224 310.76 8.96968 311.792C8.74867 314.935 8.74928 318.182 8.79245 321.33C8.81108 322.689 8.94717 324.027 9.158 325.372C9.43064 327.112 9.30205 328.934 9.75618 330.643C10.3024 332.699 11.0995 334.53 12.6142 336.174C13.6033 337.248 14.5805 338.335 15.5608 339.415C16.6174 340.58 17.886 341.534 18.9099 342.733C19.956 343.957 21.0174 345.067 22.2553 346.135C23.3377 347.069 24.6393 347.631 25.8878 348.353C27.6027 349.344 29.3235 350.049 31.2392 350.663C33.3547 351.341 35.3468 352.353 37.4467 353.083C41.7082 354.566 45.8126 356.377 50.0705 357.884C54.7891 359.555 59.8442 360.172 64.804 360.964C68.9723 361.63 73.1065 362.189 77.3262 362.475C84.5962 362.969 91.9085 364.31 99.2283 363.934C104.194 363.68 109.081 364.008 113.804 362.346C115.852 361.625 117.954 361.014 120.056 360.432C121.089 360.146 123.282 359.992 124.317 359.71C125.437 359.71 127.921 359.679 129.171 359.71C134.399 358.697 139.742 358.513 140 357.884" stroke="black" stroke-width="8" stroke-linecap="round"/>
<path d="M10.0193 308.051C9.87131 307.801 10.6196 308.547 10.7422 308.626C13.344 310.292 16.278 311.684 19.1893 312.866C23.9485 314.797 28.8847 316.605 33.9224 317.846C44.7888 320.523 55.7283 323.478 66.9158 324.825C71.4064 325.365 75.9323 325.537 80.4541 325.685C84.9536 325.832 89.4288 326.337 93.9184 326.628C98.9501 326.955 104.021 326.954 109.064 326.997C111.931 327.022 114.677 326.877 117.521 326.566C120.193 326.274 123.528 326.416 126 325.462" stroke="black" stroke-width="8" stroke-linecap="round"/>
<path d="M8 294.442C8.29912 293.534 12.1827 294.289 12.7456 294.392C15.8215 294.952 18.8163 295.792 21.7897 296.699C27.4514 298.425 32.9804 300.444 38.632 302.188C48.5943 305.263 58.3535 309.044 68.4517 311.728C71.3233 312.491 74.2346 313.023 77.1784 313.488C80.1747 313.962 83.1692 314.893 86.2239 314.922C90.3726 314.962 94.5136 315.064 98.6655 314.942C103.957 314.787 109.245 314.548 114.536 314.4C117.236 314.325 119.801 313.923 122.468 313.593C123.892 313.417 125.306 313.178 126.718 312.94C127.156 312.867 127.75 312.891 128 312.515" stroke="black" stroke-width="8" stroke-linecap="round"/>
<path d="M183.753 162C185.062 161.509 180.766 156.326 180.225 155.64C175.837 150.069 167.919 147.193 161.206 144.758C157.666 143.475 153.796 142.712 150.058 142.135C146.045 141.516 142.044 140.69 137.985 140.382C133.502 140.042 129.005 139.958 124.522 139.602C122.171 139.416 119.817 139.295 117.46 139.199C116.241 139.15 115.024 139.065 113.805 139.012C111.717 138.921 109.999 139.38 108 139.883" stroke="black" stroke-width="8" stroke-linecap="round"/>
<path d="M184.642 161.179C186.279 160.137 181.875 163.959 180.077 164.734C177.804 165.713 175.463 166.627 173.115 167.435C167.567 169.345 162.003 171.263 156.247 172.571C149.053 174.205 141.772 175.673 134.501 176.979C130.964 177.615 127.39 177.944 123.822 178.371C119.622 178.874 115.107 179.077 111 180" stroke="black" stroke-width="8" stroke-linecap="round"/>
<path d="M183.353 162C183.367 162.139 183.523 162.277 183.587 162.4C184.2 163.564 184.447 165.088 184.68 166.364C185.033 168.294 184.9 170.279 184.967 172.229C185.132 177.008 184.675 181.851 183.761 186.547C183.081 190.043 183.048 194.389 180.653 197.298C179.536 198.655 180.102 199.648 180.523 201.268C180.867 202.595 180.967 203.922 181.09 205.283C181.214 206.657 181.371 208.007 181.393 209.387C181.402 209.956 180.779 212.379 181.282 212.592C184.378 213.901 184.223 219.257 184.378 221.856C184.713 227.476 184.797 233.146 183.451 238.652C182.873 241.015 182.083 243.413 180.967 245.588C180.762 245.988 180.185 247.161 180.131 246.981" stroke="black" stroke-width="8" stroke-linecap="round"/>
<path d="M179 199C178.949 199.264 173.802 200.556 173.446 200.675C170.336 201.716 167.227 202.719 164.077 203.665C157.848 205.536 151.484 206.938 145.224 208.698C138.91 210.474 132.593 212.258 126.137 213.613C120.422 214.812 114.889 216.505 109 217" stroke="black" stroke-width="8" stroke-linecap="round"/>
<path d="M181.432 214.083C184.148 213.486 176.377 216.269 173.776 217.2C170.515 218.369 167.319 219.68 164.064 220.857C157.836 223.107 151.211 224.405 144.78 226.089C141.503 226.946 138.137 227.264 134.79 227.83C131.153 228.445 127.437 228.92 123.754 229.22C120.799 229.46 117.853 229.799 114.901 230.05C111.249 230.361 107.659 231.49 104 230.757" stroke="black" stroke-width="8" stroke-linecap="round"/>
<path d="M180.173 248C180.383 248.024 180.357 248.404 180.363 248.521C180.415 249.55 181.28 250.618 181.636 251.602C182.173 253.087 182.064 254.662 182.263 256.189C182.459 257.69 182.676 259.7 181.924 261.113C181.691 261.55 181.453 261.689 181.94 261.849C182.752 262.116 183.005 264.006 183.154 264.604C183.593 266.37 183.889 268.112 183.969 269.912C184.088 272.618 183.833 275.366 183.723 278.072C183.595 281.21 183.071 284.171 181.601 287.066C180.481 289.272 178.966 291.284 177.676 293.411C177.036 294.467 177.561 294.888 178.153 295.909C179.007 297.382 179.697 298.916 180.269 300.482C181.006 302.498 182.274 304.286 182.064 306.464C181.881 308.357 181.082 310.008 179.914 311.605C179.017 312.83 178.919 313.356 178.942 314.917C178.983 317.709 179.222 320.495 179.164 323.291C179.129 325.001 178.793 326.612 178.503 328.298C178.306 329.441 178.404 331.414 177 332" stroke="black" stroke-width="8" stroke-linecap="round"/>
<path d="M178.798 247.05C178.839 246.932 179.067 247.052 178.98 247.11C178.838 247.204 178.592 247.186 178.43 247.258C178.043 247.43 177.701 247.866 177.353 248.091C176.015 248.957 174.454 249.392 172.986 250.044C171.63 250.647 170.272 251.206 168.888 251.754C165.56 253.073 161.985 253.904 158.443 254.658C155.041 255.383 151.666 256.198 148.261 256.91C144.434 257.711 140.548 258.278 136.734 259.139C132.275 260.146 127.837 261.148 123.29 261.802C119.342 262.37 115.465 263.253 111.506 263.801C107.585 264.343 103.808 264.989 100 266" stroke="black" stroke-width="8" stroke-linecap="round"/>
<path d="M182 261C181.981 261.002 181.932 261.166 181.918 261.185C181.27 262.056 180.077 262.795 179.202 263.44C176.68 265.301 173.54 266.282 170.634 267.542C167.246 269.012 163.501 269.711 159.877 270.563C155.58 271.572 151.24 271.908 146.841 272.37C139.147 273.177 131.358 274.024 123.742 275.307C115.466 276.701 107.024 277.644 99 280" stroke="black" stroke-width="8" stroke-linecap="round"/>
<path d="M178 331C177.478 331.558 177.321 332.589 177.049 333.233C176.407 334.752 175.824 336.392 175.032 337.859C173.844 340.06 172.359 342.129 170.752 344.104C169.044 346.203 166.51 348.034 164.173 349.552C160.238 352.107 155.444 353.074 150.956 354.615C143.249 357.26 135.334 358.979 127.15 359.865C120.67 360.567 114.413 362.085 108 363" stroke="black" stroke-width="8" stroke-linecap="round"/>
<path d="M176.839 294C177.285 294.019 176.676 294.543 176.571 294.626C174.831 296.003 173.118 296.892 171.076 297.799C165.704 300.183 159.916 302.28 154.126 303.617C148.289 304.965 142.911 307.329 137.225 309.074C130.561 311.119 123.748 312.292 117 314" stroke="black" stroke-width="8" stroke-linecap="round"/>
<path d="M178 313C177.984 312.966 168.494 315.93 167.149 316.309C165.369 316.811 163.66 317.498 161.875 317.984C159.655 318.588 157.332 318.829 155.111 319.431C149.968 320.825 144.795 322.094 139.599 323.296C136.521 324.007 133.432 324.67 130.361 325.41C127.575 326.081 124.796 326.448 122 327" stroke="black" stroke-width="8" stroke-linecap="round"/>
</svg>
