<svg width="287" height="508" viewBox="0 0 287 508" fill="none" xmlns="http://www.w3.org/2000/svg">
  <ellipse cx="139.199" cy="161.866" rx="21.5" ry="12.008" fill="#000"/>
  <path d="M136.699 146.016v3.842" stroke="#000" stroke-linecap="round"/>
  <path d="M147.699 125.843v24.015m6-11.527v12.488m-35-9.606v5.763m2-13.448v13.448m29-.96v4.803" stroke="#000" stroke-width="3" stroke-linecap="round"/>
  <path d="M132.699 146.976v1.922" stroke="#000" stroke-linecap="round"/>
  <path d="M124.699 121.039v25.937" stroke="#000" stroke-width="3" stroke-linecap="round"/>
  <path d="M139.699 146.016v3.842m1-2.882v2.882m-7-3.842v2.882" stroke="#000" stroke-linecap="round"/>
  <rect x="110.699" y="190.205" width="77" height="46.11" rx="23.055" fill="#000"/>
  <path d="m160.989 152.568-11.415 11.022-8.379-13.539 19.794 2.517Z" fill="#000"/>
  <path d="M148.699 150.819h1m-3 0v-2.679 2.12c0 .112-.854.046-.978.148-.049.041 0 .34 0 .164v-14.163" stroke="#000" stroke-width="3" stroke-linecap="round"/>
  <path d="m123.577 162.841 37.431-10.224-.03 20.496-37.401-10.272Zm-17.954 271.511 3.576 5.617-1.5 5.763-15.5-4.803 13.424-6.577Z" fill="#000"/>
  <path fill="#000" d="M111.699 158.504h25v287.228h-25zm18.361-2.505-19.361 1.544 2.5-5.763 2-4.804 14.861 9.023Z"/>
  <path d="M133.189 148.926c.967.123 1.482 1.208.8 1.686l-10.515 7.378c-.475.334-1.271.137-1.644-.405l-6.583-9.566c-.46-.668.014-1.387.844-1.281l17.098 2.188Z" fill="#000"/>
  <path transform="matrix(.99065 .13644 -.2985 .9544 131.699 151.78)" stroke="#000" stroke-width="3" d="M0-1.5h11.464"/>
  <path stroke="#000" stroke-width="3" d="M113.699 157.004h6"/>
  <path d="M113.257 158.504h.429-.487.096-.596" stroke="#000" stroke-width="3" stroke-linecap="round"/>
  <path fill="#000" d="M136.699 151.78h12v293.953h-12zm-29 74.929h4v219.024h-4z"/>
  <path d="m109.199 227.189 3.002-69.718" stroke="#000" stroke-width="3"/>
  <path d="M111.44 198.883c0 .714.008 1.408.147 2.109.073.365.165.784.076 1.158-.014.058-.025.1-.025.159 0 .031-.077-.388-.082-.449-.055-.68-.054-1.374-.088-2.058-.021-.421-.096-.859-.066-1.28.031-.427.137-.842.137-1.272 0-.117.012-.552-.003-.161-.018.479-.046.954-.046 1.434 0 .65.048 1.298.049 1.947a22.21 22.21 0 0 1-.085 2.032c-.052.593-.045 1.192-.057 1.786-.024 1.182.065 2.345.17 3.52.102 1.148.22 2.274-.036 3.406-.005.022-.018.192-.015.095.018-.557.057-1.124-.048-1.673-.091-.477-.267-.936-.321-1.422a9.725 9.725 0 0 1-.033-1.428c.007-.181-.003-.363.006-.543.006-.127.112-.494.097-.367-.112.927-.189 1.858-.33 2.781-.076.497-.181 1.032-.187 1.538-.002.226 0 .453 0 .679m.689 4.641a2.979 2.979 0 0 0-.156 1.863c.175.721.627 1.433.604 2.161-.026.789-.351 1.546-.592 2.325-.103.334-.276.661-.356.997-.075.313-.079.631-.106.946a22.637 22.637 0 0 0-.069 2v.749c0 .027.034.12-.003.146-.052.036-.044-.085-.053-.128-.065-.296-.113-.593-.172-.89-.142-.705-.319-1.413-.41-2.121-.07-.537-.105-1.099.062-1.634.205-.651.446-1.334.826-1.968.389-.649.887-1.3.876-1.982-.009-.54-.303-1.075-.566-1.598-.082-.161-.165-.333-.301-.487-.043-.049-.105.095-.134.146a5.556 5.556 0 0 0-.419.895 5.08 5.08 0 0 0-.282 2.268c.052.501.035 1.006-.169 1.499-.136.331-.268.653-.268.991v.612c0 .248.165-.489.25-.734.39-1.129.546-2.261.757-3.4.227-1.229.118-4.937.118-3.702 0 1.209-.056 2.417-.056 3.627v.437c0 .362.043-.724.053-1.086.004-.132.13-.513.003-.395-.127.119-.057.834-.059.869-.089 1.321-.343 2.629-.6 3.944-.105.537-.131 1.092-.404 1.618a.469.469 0 0 0-.05.333c.086.381.283.756.369 1.137.089.391-.003.796-.131 1.182-.057.171-.178.334-.244.503-.045.115.123-.243.131-.261.188-.432.088-.898.088-1.337 0-.023-.047-.176.081-.151.515.098.816.574.982.784.202.255.412.545.457.819.003.018-.004.05.031.064.028.012.055-.025.066-.042a1.42 1.42 0 0 0 .159-.36c.539-1.736.081-3.5.081-5.244 0-.027-.019-.106.013-.083.181.136.303.389.385.525.571.953.607 2.018.409 3-.098.487-.37.957-.528 1.436-.051.155-.335.301-.335.459" stroke="#000" stroke-width="3" stroke-linecap="round"/>
  <path transform="matrix(-.07015 -.99754 .99952 -.03095 162.344 174.043)" stroke="#000" stroke-width="3" d="M0-1.5h21.381"/>
  <path fill="#000" d="M148.699 169.071h13v276.661h-13zm13 5.764h9v270.898h-9z"/>
  <path transform="rotate(-1.9 5364.607 -4776.734) skewX(.159)" stroke="#000" stroke-width="3" d="M0-1.5h10.432"/>
  <path transform="matrix(.11295 .9936 -.99454 .10433 168.699 173.874)" stroke="#000" stroke-width="3" d="M0-1.5h14.583"/>
  <path fill="#000" d="M170.699 190.205h15v255.528h-15z"/>
  <path d="m186.199 191.646-15.5-3.363" stroke="#000" stroke-width="3"/>
  <path d="M175.699 190.205c-.062-.088-.155-.238-.117-.34.012-.035.102-.105-.026-.068-.235.067-.569.156-.826.075-.07-.022-.187-.12-.099-.168.008-.004.064-.007.054.003-.044.043-.183.06-.258.065-.105.007-.241-.01-.312-.062-.042-.031-.054-.042-.121-.042-.102 0-.205.003-.307 0-.09-.004-.115-.02-.179-.048-.108-.047-.277-.026-.403-.026-.079 0-.143-.021-.222-.021h-.811c-.057 0-.163-.012-.213.005a.757.757 0 0 1-.169.037c-.102.008-.196.041-.306.043-.154.002-.302.01-.442-.032-.112-.034-.243-.099-.243-.178 0-.082.016-.169.175-.195.097-.016.212-.006.311-.006.227 0 .447.017.666.057.115.022.248.073.369.079.147.008.293.024.44.032.299.017.596.054.894.077.306.022.61.06.895.134" stroke="#000" stroke-width="3" stroke-linecap="round"/>
  <path transform="matrix(.10263 .99472 -.9955 .09478 183.772 190.395)" stroke="#000" stroke-width="3" d="M0-1.5h57.752"/>
  <path d="M186.629 218.063c-.067.192-.051.164-.183.412a9.965 9.965 0 0 1-.23.413c-.013.022-.254.452-.38.541-.015.011-.047-.014-.05-.028-.011-.042.026-.218.038-.258.034-.115.093-.228.165-.335.056-.086.13-.201.251-.259.118-.056.181.019.194.088.036.195-.139.326-.263.493-.078.106-.153.212-.245.313-.015.017-.13.113-.095.14.027.021.184.011.228.019.1.018.154.073.185.135.06.123.01.255-.055.372-.073.132-.241.215-.343.333-.006.008-.038.043-.058.035-.073-.028.026-.281.039-.325.056-.187.21-.392.362-.556.073-.077.151-.129.248-.192.075-.049.175-.042.271-.027.14.023.196.125.225.209.064.188-.042.352-.108.533a3.365 3.365 0 0 1-.158.362c-.063.123-.042.246-.076.372-.029.108-.047.249-.147.342-.085.078-.23.11-.371.103-.1-.005-.28-.025-.361-.068-.068-.035.16-.193.207-.237a.51.51 0 0 1 .389-.153c.133 0 .272.037.331.118.074.101-.051.285-.122.377-.087.111-.276.319-.492.335-.189.014-.312-.027-.284-.159.057-.262.789-.307.886-.037.077.214-.108.485-.319.644-.081.061-.326.221-.465.135-.169-.104-.039-.388.05-.5.127-.161.429-.239.698-.191.474.085.391.51.293.741-.096.226-.268.476-.633.556-.077.017-.234.053-.299.001a.408.408 0 0 1-.141-.328c.01-.122.126-.258.335-.256.349.004.399.289.398.46-.001.236-.124.434-.346.616-.186.153-.39.327-.421.526-.038.256.141.51.325.73.102.12.203.252.342.356.189.142.434-.157.468-.254.093-.271-.013-.571-.18-.819a.997.997 0 0 1-.16-.418c-.025-.153-.057-.315-.03-.47.045-.252.255-.454.667-.48.52-.032.504.436.482.666-.024.259-.132.505-.235.754-.1.243-.175.49-.24.739-.039.15-.125.376.006.518.026.028.034.037.039.071.019.13.078-.258.09-.388.016-.161-.024-.321-.044-.481-.038-.298-.044-.598-.085-.896-.027-.196-.115-.372-.115-.567 0-.026-.023-.098.002-.077.026.02.052.148.053.151.051.185.087.372.111.559.048.388.023.78.025 1.169.003.447.17.88.291 1.317.049.178.034.36.034.54 0 .021.021.102-.034.107-.079.008-.169 0-.248 0h-.475c-.085 0-.188.008-.271-.005-.157-.025-.257-.121-.347-.2-.212-.186-.387-.378-.475-.603-.101-.259-.017-.451.153-.688.03-.041.149-.148.149-.202 0-.01-.011-.019-.021-.024-.05-.028-.062.077-.073.119-.078.322-.097.65-.097.977 0 .116-.013.237.021.352.02.071.061.138.089.207.026.062.03.067.128.067.089 0 .18.008.244-.043.191-.153.215-.395.233-.584.017-.165-.044-.32-.046-.484 0-.007-.014-.068.016-.064.17.026.293.229.355.318.05.071.085.306.068.229-.024-.108-.042-.235-.095-.339m-.491 1.106c-.332.207-.665.399-.705.691-.022.167.148.297.448.301.341.006.577-.126.723-.289.146-.163.307-.355.239-.544-.052-.143-.402-.061-.531-.009-.426.171-.68.486-.739.773-.01.051-.04.136.014.184.109.096.421.046.551.008.428-.125.744-.357.931-.605.063-.084.17-.251.103-.349-.055-.079-.17-.063-.246-.01a1.399 1.399 0 0 0-.425.477c-.065.119-.138.28-.085.406.026.063.152.086.253.087.289.003.525-.176.697-.284.408-.254.716-.539.777-.888.007-.043.034-.126-.065-.06-.342.232-.601.592-.638.894-.017.133.073.253.167.37.218.271.071.569-.166.818-.107.112-.238.21-.394.302-.078.046-.16.101-.278.113-.552.055-.605-.42-.532-.615.167-.447.737-.935 1.426-1.175.256-.089.657-.1.693.121.01.061-.033.118-.119.156-.224.098-.522.148-.779.209-.43.104-.891.23-1.269.389-.12.05-.093.065.043.107.167.052.369.077.485.169.036.028.064.081.138.066.12-.024.448-.131.352-.083-.081.04-.197.065-.29.095-.21.067-.408.136-.64.176-.099.017-.281.032-.357.08-.037.023.193.168.213.19.157.175.117.385.117.574 0 .106-.03.231.022.334.047.095.254.067.376.044.547-.106 1.011-.41.775-.748-.07-.101-.167-.204-.208-.311-.035-.09.056-.136.187-.179.15-.049.412-.086.52.018.258.25-.002.633-.087.892a2.03 2.03 0 0 0-.088.707c.007.236.107.441.217.667.132.269.318.563.318.845 0 .123-.065.206-.278.254-.475.108-.414-.494-.404-.621.022-.301.144-.607.413-.868.211-.206.295-.402.353-.64.006-.022.115-.393.038-.406-.141-.023-.327.751-.335.825-.06.506.445 1.004.141 1.499-.089.144-.278.449-.605.471-.177.012-.312-.126-.37-.199-.229-.287-.216-.653-.163-.96.028-.161.099-.312.204-.461.067-.095.14-.189.175-.291.046-.136.056-.317-.124-.426-.198-.118-.363.043-.478.137-.341.279-.54.625-.505.967.015.15.122.287.141.436.032.239-.043.449-.347.622-.058.033-.196.117-.293.107-.278-.031-.301-.435-.313-.539-.052-.49.119-1.004.38-1.47.057-.102.125-.202.135-.309.001-.002.004-.088-.016-.077-.031.018-.056.069-.069.088a2.707 2.707 0 0 0-.257.521c-.05.126-.103.242-.103.37m2.515 2.547c.178.487.447.958.635 1.443.177.458.219.924.103 1.392-.011.044-.012.158-.063.128-.104-.062-.094-.364-.104-.427-.038-.252-.055-.505-.11-.755-.038-.173-.108-.342-.148-.514-.088-.375-.044-.755-.085-1.132-.021-.198-.057-.396-.084-.594-.017-.124-.027-.248-.075-.369-.029-.074-.111-.295-.107-.219.032.727.059 1.451.058 2.179-.001.667-.02 1.332-.144 1.995-.029.157-.078.31-.122.465-.009.028-.01.076-.034.104-.01.012-.012.026-.024 0-.096-.204-.102-.435-.129-.644a16.876 16.876 0 0 1-.115-1.344c-.018-.396-.019-.793-.097-1.187-.01-.053-.043-.211-.041-.157.017.599-.041 1.2-.091 1.798-.049.588-.12 1.176-.165 1.764-.011.137.003.283-.028.42 0 .002-.032.034-.034.024-.028-.101-.023-.206-.028-.309a25.482 25.482 0 0 1-.028-.993c-.01-1.131.063-2.265.013-3.396 0 0-.02-.087-.011-.096.017-.016.024.037.029.056.041.147.047.241.049.407.022 1.196-.257 2.39-.349 3.584-.009.112.004.246-.033.358 0 .003-.008.032-.021.024-.03-.017-.025-.056-.028-.073a3.28 3.28 0 0 1-.028-.517c0-.925.067-1.85.121-2.774.021-.351.045-.702.069-1.052.005-.076.005-.153.013-.229.001-.014.019.027.021.041.092.566-.03 1.155-.115 1.717a57.52 57.52 0 0 1-.481 2.644c-.057.281-.108.566-.204.843-.011.03-.009.11-.041.088-.046-.032-.051-.081-.064-.123a2.814 2.814 0 0 1-.116-.57c-.088-.877-.027-1.762-.009-2.64.008-.363.018-.726.023-1.089l.001-.249c0-.015-.004-.077.005-.025.084.476.036.968-.002 1.443-.067.837-.185 1.672-.302 2.507-.027.191-.053.382-.07.574 0 .011-.011.05-.031.016-.033-.057-.036-.114-.043-.177a4.988 4.988 0 0 1-.016-.725c.03-.83.145-1.658.219-2.486.03-.336.052-.672.092-1.007.005-.047-.034-.136.04-.139a.138.138 0 0 1 .067.024c.074.08.149.252.174.317.258.683.319 1.383.322 2.083.002.479-.028.958-.03 1.438-.001.103.013.411-.005.308-.021-.125-.019-.251-.023-.377-.015-.4-.024-.836-.024-1.234.001-.807.045-1.613.062-2.42.007-.312.009-.625.009-.937 0-.053-.015-.106.004-.157.009-.023.034.041.041.064.132.441.126.906.114 1.353-.021.748-.11 1.496-.172 2.244-.021.248-.033.497-.063.746-.004.034-.023.08-.059.01-.182-.356-.186-.77-.2-1.139-.019-.504.001-1.011.043-1.514.004-.042.005-.084.013-.126.001-.008.007-.027.014-.021.018.015.022.035.025.054.038.319.021.8.01 1.071a93.248 93.248 0 0 1-.148 2.504c-.055.825-.079 1.658-.202 2.481-.022.154-.066.307-.077.461 0 .003-.004.057 0 .015.021-.191.08-.38.12-.57.015-.067.017-.258.065-.198.141.178.194.393.249.586.036.127.059.256.095.383.012.041.031.164.031.123 0-.607-.044-1.215-.065-1.822a15.213 15.213 0 0 1-.012-.565c0-.079.039.157.049.236.066.473.067.948.067 1.422 0 .424-.019-.846-.015-1.269.004-.427-.008-.857.039-1.283 0-.006.007-.157.034-.168.01-.005.012.013.017.02.035.047.081.117.103.161.238.469.336.964.434 1.45.063.312.114.624.172.936a.478.478 0 0 1 .008.084c0 .026.004-.052.007-.078.049-.55.097-1.099.122-1.649.02-.439.026-.879.026-1.318 0-.045-.012-.179.009-.136.176.354.221.755.285 1.119.11.634.17 1.269.243 1.905.025.208.062.835.062.626 0-.642.018-1.285.034-1.927.013-.522.02-1.045.062-1.566.004-.047.022-.234.03-.298.003-.023-.004-.087.017-.069.048.041.047.098.065.148.062.179.136.429.18.598.184.709.3 1.423.402 2.138.034.244.109.978.118.732.029-.869.08-1.733.05-2.602-.005-.157-.012-.313-.012-.469 0-.064.078.117.106.178.326.724.512 1.494.549 2.247.002.042.002.084.002.126 0 .136-.048-.272-.068-.408-.075-.498-.139-.995-.224-1.492a3.923 3.923 0 0 0-.221-.851 2.657 2.657 0 0 0-.178-.369.208.208 0 0 0-.073-.078c-.045-.03-.05-.097-.067-.135" stroke="#000" stroke-width="3" stroke-linecap="round"/>
  <path d="M189.561 247.211c-.176-.012-.34-.089-.502-.142a3.083 3.083 0 0 0-.566-.122c-.26-.034-.514-.101-.773-.142-.183-.029-.367-.057-.549-.088a6.25 6.25 0 0 0-1.094-.075c-.06 0-.155.016-.211-.007-.042-.018-.05-.095-.058-.124a2.26 2.26 0 0 1-.1-.493c-.029-.473.096-1 .487-1.363.201-.187.493-.397.797-.244.408.206.376.658.278.995a1.551 1.551 0 0 1-.2.409c-.036.055-.076.13-.138.172-.106.073-.289-.143-.33-.186-.376-.4-.617-.938-.613-1.447 0-.045-.003-.14.03-.185.052-.07.247.065.27.085.263.226.357.59.419.886.065.309.078.636-.012.942-.027.092-.068.185-.167.24a.657.657 0 0 1-.491.049c-.207-.065-.359-.23-.469-.381-.376-.511-.592-1.119-.734-1.7-.153-.622-.267-1.443.181-2.009a.395.395 0 0 1 .278-.165c.289-.037.506.074.643.283.197.298.298.652.343.987.045.332.054.719-.061 1.044-.046.131-.271.214-.422.141-.188-.09-.307-.311-.384-.46a3.668 3.668 0 0 1-.416-1.905c.048-.715.285-1.435.511-2.124.079-.24.154-.569.348-.774.061-.066.176-.133.285-.105.101.026.201.13.242.199.137.23.223.572.268.81.124.662.154 1.34.134 2.01-.014.434-.054.881-.185 1.303-.002.007-.162.463-.229.429-.125-.064-.238-.321-.286-.414-.229-.448-.319-.931-.36-1.413a3.503 3.503 0 0 1 .008-.731c.004-.029.007-.186.057-.211.059-.03.199.008.245.029.453.206.62.708.727 1.09.193.69.228 1.445.176 2.152-.003.034-.004.08-.04.104-.025.016-.028.011-.058-.015a1.417 1.417 0 0 1-.215-.257 2.937 2.937 0 0 1-.475-1.064c-.14-.621-.174-1.3-.007-1.921.076-.284.232-.549.393-.806.098-.156.207-.382.369-.509a.126.126 0 0 1 .144-.006.774.774 0 0 1 .217.263c.141.3.209.651.24.966a9.248 9.248 0 0 1-.496 4.01c-.004.009-.145.521-.264.476-.144-.054-.263-.185-.346-.285-.437-.528-.717-1.152-.884-1.773-.18-.665-.177-1.351-.194-2.029a10.623 10.623 0 0 1-.004-.357c.002-.153.075.298.103.449.257 1.383.436 2.784.34 4.185a2.348 2.348 0 0 1-.079.525c-.014.046-.055.157-.089.12-.117-.131-.18-.415-.216-.547a7.299 7.299 0 0 1-.24-2.128c.029-.918.238-1.839.47-2.735.038-.147.077-.295.127-.439.025-.073.022-.079.025.032.04 1.301.002 2.604.081 3.905.019.306.057.613.057.92 0 .286.02-.571.04-.857.075-1.101.212-2.197.373-3.292.056-.385.123-.768.184-1.152.023-.143.02-.309.07-.448.019-.055.079.097.096.153.254.813.359 1.665.461 2.498.108.874.188 1.751.276 2.626.029.296-.092-.589-.121-.884a23.897 23.897 0 0 1-.043-3.895c.011-.17.021-.342.05-.511.002-.012.021-.222.054-.154.148.312.212.701.274 1.021.178.926.285 1.86.309 2.798.009.342.023.688.013 1.031-.008.278-.072-.554-.089-.832a49.044 49.044 0 0 1-.092-2.628c-.003-.333-.008-.671.016-1.004.002-.03-.005-.118.008-.09.033.073.05.152.07.228.094.364.158.67.219 1.049.165 1.038.227 2.083.273 3.129.039.9-.226-1.794-.272-2.694-.016-.3-.022-.6-.024-.901v-.171c0-.01-.006-.039 0-.03.06.092.108.259.138.345.162.469.274.949.353 1.432.036.226.107.906.073.68-.034-.224-.032-.461-.04-.686-.022-.581-.022-1.162-.023-1.743 0-.2-.003-.4.001-.6 0-.019-.006-.225.036-.088.105.343.16.703.203 1.054.093.762.114 1.529.141 2.295.006.17.01.341.01.512 0 .098-.009.079-.035-.046-.164-.784-.276-1.576-.418-2.363-.007-.036-.031-.144-.027-.107.029.332.075.661.099.995.095 1.358.115 2.719.187 4.079.003.056.007.113.007.169 0 .025 0 .058-.015-.017-.153-.746-.195-1.507-.218-2.262-.001-.057-.013-.224.012-.171.056.124.081.256.115.385.079.313.164.681.224.994.068.352.116.703.116 1.059 0 .002-.001.034-.017.011a1.333 1.333 0 0 1-.11-.246 7.539 7.539 0 0 1-.217-.798 16.24 16.24 0 0 1-.197-1.174c-.008-.064-.006-.251-.031-.19-.006.015.004.031.005.047.008.078.017.157.023.236.045.594.059 1.19.068 1.786.005.311.037.653-.018.965-.04.231-.235-.427-.307-.653a11.418 11.418 0 0 1-.319-1.197c-.056-.268-.076-.548-.148-.814-.01-.038.001.078.002.116.01.254.016.41.011.68-.011.464-.023.943-.133 1.4-.004.02-.016.076-.037.095-.016.015-.019.004-.029-.016-.029-.06-.066-.191-.08-.235a9.206 9.206 0 0 1-.372-1.984c-.006-.091.013.182.012.274-.005.674-.04 1.353-.119 2.024-.006.052.002.176-.053.151-.053-.024-.074-.08-.101-.124a3.792 3.792 0 0 1-.254-.5 5.724 5.724 0 0 1-.41-1.612l.019.202c.045.557.054 1.111.012 1.669-.024.315-.058.633-.107.946-.006.036-.008.142-.058.176-.046.031-.062-.084-.076-.131a8.298 8.298 0 0 1-.274-1.459c-.028-.256-.043-.512-.059-.769a1.18 1.18 0 0 1-.004-.084c-.001-.011-.013-.031 0-.035.013-.003.011.02.014.031a4.892 4.892 0 0 1 .202 1.38c0 .012-.036.103-.047.045-.028-.144.046-.331.078-.469.007-.026.049-.368.138-.366.109.001.251.152.296.201.343.375.591.83.755 1.279.048.134.075.266.092.404 0 .004.013.097-.014.041-.159-.32-.194-.671-.277-1.006-.085-.343.152.691.169 1.041.001.014.013.04-.004.041-.017.002-.019-.025-.027-.038l-.056-.102a7.405 7.405 0 0 1-.393-.937c-.041-.116-.073-.235-.125-.349-.05-.107.041.227.066.34.067.304.128.61.198.914.014.06.022.236.045.178.007-.017-.005-.037-.008-.055a10.047 10.047 0 0 1-.074-1.083c0-.067-.001-.184.02-.26.015-.051.026-.047.065-.001.163.199.266.451.361.674.089.211.135.352.203.561.018.055.019.117.058.164.031.038.015-.09.018-.136.017-.278.025-.559.059-.837.002-.017-.01-.051.011-.051.023 0 .019.034.026.051.018.049.034.098.049.147.047.151.102.353.143.504l.049.184c.009.03.005.064.026.089.008.011.015-.022.018-.035.014-.054.023-.109.034-.164.084-.431.023-.14.111-.575.007-.033.042-.206.059-.271 0-.001.007-.025.014-.027.05-.019.241.735.251.782l.034.177c.007.036.013.142.028.108.037-.084.04-.175.059-.262.031-.137.083-.366.112-.504.017-.082.042-.179.042-.265 0-.025.021.049.028.073.049.158.08.318.109.478.024.136.04.272.068.408.014.068.023.101.043.014.051-.22.076-.446.116-.668.007-.036.039-.23.063-.295.021-.057.036-.014.058.021.11.184.188.383.264.577.063.16.07.189.12.334.013.035.001.119.044.106.016-.005.007-.028.008-.042.004-.068.002-.323.002-.358 0-.153-.035-.354.002-.507.005-.019.019.036.024.055.032.108.073.263.1.364.009.034.08.315.108.381.005.011.022.037.029.026.02-.033.015-.073.021-.109.032-.222.049-.444.078-.666.001-.011 0-.269.057-.121.077.199.13.405.186.609.005.019.075.292.098.356.023.066.025-.008.029-.031.03-.15.056-.302.084-.453.034-.185.014-.073.038-.216.003-.019-.001-.069.014-.055.044.041.049.24.054.275.014.103.033.209.033.313l-.003-.18c-.003-.06-.028-.239-.011-.18.039.127.066.256.101.384.03.108.018-.108.019-.132.001-.017-.006-.199.01-.138.027.105.055.209.086.313.015.05.032.192.061.146.015-.023.003-.104.003-.123v-.2c0-.11.024.124.025.133.013.057.027.114.047.17a1.807 1.807 0 0 1-.042-.116c-.021-.062-.026-.131-.038-.193-.037-.183-.034-.364-.039-.548-.001-.042-.031-.075-.031-.115" stroke="#000" stroke-width="3" stroke-linecap="round"/>
  <path fill="#000" d="M185.699 246.882h7v198.85h-7z"/>
  <path transform="matrix(.10207 .99478 -.99898 .04513 188.039 246.997)" stroke="#000" stroke-width="3" d="M0-1.5h27.731"/>
  <path fill="#000" d="M192.699 273.78h14v171.953h-14z"/>
  <path transform="matrix(.9763 .21643 -.23358 .97234 192.699 273.78)" stroke="#000" stroke-width="3" d="M0-1.5h13.316"/>
  <path transform="matrix(.10755 .9942 -.99887 .04758 202.628 274.999)" stroke="#000" stroke-width="3" d="M0-1.5h171.34"/>
  <path fill="#000" d="M206.699 414.992h15v30.74h-15z"/>
  <path d="M208.887 402.733c-.022 2.086-.242 4.24-.889 6.29-.222.703-.169-.011-.159-.103.072-.657.192-1.314.311-1.968.19-1.043.423-2.083.697-3.119.099-.375.201-.751.295-1.127.039-.156.07-.289-.067-.049-.488.853-.756 1.756-1.032 2.641-.509 1.629-.913 3.276-1.106 4.931-.029.249-.106.579-.043.837.015.06.093-.111.108-.172.351-1.469.461-2.973.652-4.452.179-1.386.353-2.771.594-4.153.048-.273.09-.55.17-.821.008-.029.011-.06.031-.087.01-.013.004.029.002.043-.01.086-.072.364-.08.404-.675 3.273-1.37 6.539-1.392 9.844-.001.153-.009.611-.002.458.011-.233-.01-.467-.02-.699-.07-1.68-.156-3.36-.156-5.04 0-1.584-.064-3.193.277-4.768.02-.096.045-.192.073-.287.02-.068.037-.26.096-.2.093.093.008.218-.002.326-.028.314-.068.601-.114.916-.515 3.545-.814 7.1-.362 10.654.253 1.987-.3-3.98-.368-5.972-.055-1.607-.048-3.231.176-4.834.045-.325.104-.653.201-.974.123-.405.121.184.121.217-.011 1.778-.229 3.555-.257 5.333-.038 2.398.05 4.786.418 7.174.059.387.083.823.228 1.207.058.155 0-.319-.023-.478-.236-1.639-.522-3.269-.659-4.914a30.018 30.018 0 0 1-.029-4.722c.024-.317.012-.696.13-1.014.109-.294-.003.604-.023.906-.109 1.698-.215 3.398-.263 5.098-.052 1.799.126 3.594.109 5.391-.017 1.833.021-3.665.043-5.498.006-.502.004-1.003-.009-1.505-.001-.026.044-.426-.038-.476-.194-.119-.152.324-.199.489a10.918 10.918 0 0 0-.375 2.013c-.125 1.404-.233 2.861.067 4.26.03.144.061.599.268.723.079.047.11-.12.127-.187.06-.232.092-.515.118-.742.159-1.345.271-2.691.463-4.034.083-.582.169-1.164.337-1.739.112-.381.191-.949.545-1.287.128-.121.097.285.101.43.024.842-.014 1.685-.009 2.527.01 1.628.075 3.266.328 4.888.005.033.005.067.02.1.034.071.007-.149.007-.224 0-.36-.012-.718-.036-1.078-.115-1.769-.22-3.539-.181-5.31.009-.392.033-.784.047-1.176.002-.061.005-.122.005-.183 0-.016 0-.063-.005-.048-.012.041-.013.084-.018.125-.178 1.507-.22 3.025-.219 4.535a42.377 42.377 0 0 0 .108 2.875c.006.096-.079.222.035.288.021.012.018-.034.023-.051.031-.12.032-.243.036-.364.025-.92.011-1.841.026-2.761.027-1.622.032-3.245.273-4.861.012-.08.023-.161.042-.241.037-.154.051-.045.061.048.072.711.005 1.429.013 2.141.022 1.837.166 3.672.344 5.506.019.191-.044.624.08.824.09.144-.003-.307-.008-.461-.011-.283-.042-.938-.054-1.207-.081-1.771-.173-3.543-.089-5.315a13.94 13.94 0 0 1 .14-1.535c.093-.575.119-.157.11.12-.065 1.851-.114 3.693-.02 5.546.048.962.097 1.927.225 2.888.016.115.034.23.063.344.01.039-.005.131.053.114.072-.021.038-.095.045-.143.018-.118.027-.238.031-.357.076-2.01-.093-4.023-.04-6.035.018-.657.044-1.314.076-1.971.015-.301.057-.896.014-.104-.097 1.776-.134 3.544-.018 5.321.056.866.142 1.732.254 2.596.048.371.133.829.07.055-.19-2.314-.45-4.622-.472-6.94a20.61 20.61 0 0 1 .04-1.86c.009-.109-.027-.426.045-.326.11.152-.01.332-.013.499a35.443 35.443 0 0 0 .415 6.259c.124.772.242 1.558.472 2.323.209.697.204-.393.203-.413-.064-1.99-.244-3.972-.237-5.964.001-.294.005-.588.005-.882-.001-.175.004-.35-.009-.525-.004-.049-.019.098-.02.147-.061 1.894.086 3.794.337 5.681.051.387.112.772.183 1.158.036.196.08.391.139.585.02.068.021.148.098.199.035.023.061-.052.078-.082.09-.164.102-.376.114-.538.153-2.036.039-4.081.161-6.119.046-.766.227-3.065.183-2.298-.122 2.141-.091 4.287.181 6.423.083.655.125 1.401.418 2.044.105.231.14-.477.143-.718.021-2.066-.15-4.133-.152-6.2-.001-.686.026-1.373.015-2.059-.001-.057.034-.121-.011-.17-.132-.146-.065.33-.08.496-.225 2.393-.087 4.802.339 7.183.116.645.209 1.305.402 1.945.017.054.023.113.072.16.116.112.071-.263.071-.396 0-2.027-.274-4.059-.406-6.083-.049-.747-.08-1.494-.145-2.24-.017-.184-.031-.369-.061-.553-.019-.123-.051-.465-.156-.359-.301.304-.194 1.288-.206 1.539a29.157 29.157 0 0 0 .271 5.318c.099.716.193 1.454.4 2.164.088.304.161.175.192-.051.069-.509.044-1.027.04-1.537a172.547 172.547 0 0 1 0-3.297c.01-.867.021-1.734.049-2.601.009-.284.031-.568.031-.852 0-.02-.004-.08-.009-.06-.014.066-.017.134-.022.201-.137 1.943.028 3.9.349 5.833.118.713.241 1.439.478 2.143.066.198.16.35.183.043.035-.48-.018-.967-.054-1.446-.094-1.255-.205-2.508-.261-3.764a31.16 31.16 0 0 1-.034-2.204c.004-.152.013-.304.018-.457.005-.137.162-.503-.004-.411-.159.087-.085 1.068-.085 1.068 0 1.624.176 3.246.406 4.863.122.853.492 3.404.523 2.548.018-.488-.058-.985-.1-1.471-.11-1.245-.226-2.49-.282-3.736a32.55 32.55 0 0 1-.011-2.253c.006-.246.019-.492.022-.738a5.359 5.359 0 0 0-.013.348c-.019 2.113.191 4.27.733 6.357.089.345.168.88.491 1.194.135.132.23-.286.244-.441.161-1.844-.078-3.703-.061-5.549.006-.569.027-1.138.027-1.707 0-.069.003-.138-.004-.207-.01-.095-.028.188-.032.282-.092 2.084.134 4.169.541 6.237.061.311.129.62.201.93.045.195.095.389.152.583.024.08-.04.26.089.24.134-.021.012-.17.007-.255-.027-.444-.145-1.403-.188-1.769-.204-1.772-.35-3.534-.301-5.31.003-.137.011-.275.018-.412.002-.038.008-.153.009-.115.001.068-.005.136-.007.204-.029.943.059 1.883.152 2.824.179 1.825.459 3.64.811 5.455.48 2.483-.904-4.971-1.108-7.468-.014-.164-.024-.327-.036-.491-.011-.139-.018-.289-.018-.019 0 .602.011 1.205.06 1.807.148 1.802.496 3.597.892 5.384.031.143.138.568.14.424.008-.496-.093-1.003-.154-1.496-.238-1.918-.446-3.831-.489-5.754a27.43 27.43 0 0 1-.007-1.073c.012-.633.064 1.266.121 1.898.192 2.145.331 4.321.887 6.445.014.053.009.11.051.157.101.112-.003-.256-.018-.384-.087-.747-.204-1.492-.315-2.237-.241-1.629-.376-3.276-.735-4.897a1.482 1.482 0 0 0-.071-.254c-.066-.163-.098-.108-.134.029-.121.455-.083.948-.063 1.404.081 1.837.358 3.674.753 5.495.478 2.203-.413-4.438-.418-6.66 0-.235-.015-.935.054-.704.214.719.239 1.472.373 2.197.202 1.093.448 2.183.713 3.271.246 1.011.453 2.048.844 3.044.072.184-.053-.377-.091-.565-.177-.851-.347-1.703-.503-2.556a54.96 54.96 0 0 1-.543-3.541c-.102-.877-.235-1.774-.194-2.655.012-.258.076.516.107.774.101.842.205 1.684.348 2.524.182 1.065.426 2.126.697 3.183a62.382 62.382 0 0 0 .559 1.997c.013.041.003.157.045.123.122-.1-.203-1.108-.206-1.124-.156-.77-.316-1.538-.447-2.309-.406-2.391-.613-4.798-1.056-7.185-.042-.224-.229-.868-.32-.649-.074.179-.111.823-.116.916a36.723 36.723 0 0 0-.027 2.088 44.8 44.8 0 0 0 .286 4.052c.089.788.284 1.592.306 2.383.007.256-.114-.507-.163-.761a65.25 65.25 0 0 1-.411-2.343c-.437-2.82-.696-5.645-.907-8.474-.001-.008-.043-.834-.107-.152-.074.778-.065 1.564-.036 2.343.106 2.797.617 5.632 1.492 8.377.056.175.117.35.184.524.036.095.079.189.127.282.023.045.01.129.087.132.069.002.021-.085.018-.128-.019-.27-.161-.971-.192-1.139-.559-2.984-.889-5.939-.836-8.944.02-1.13.096-2.257.206-3.384.02-.203.134-.808.053-.61-.108.267-.078.548-.1.823-.231 2.909-.093 5.813.315 8.714.122.87.281 1.738.431 2.607.03.172.06.344.087.517.047.295-.011.034-.04-.094-.602-2.649-1.025-5.323-1.068-7.999-.016-.993.056-1.985.107-2.977.011-.209.024-.417.029-.625.002-.07 0-.278-.006-.209-.015.174-.02.347-.02.521a50.68 50.68 0 0 0 .297 5.53c.126 1.214.245 1.963.446 3.118.044.25.274.983.126.749-.323-.511-.383-1.237-.525-1.761a30.013 30.013 0 0 1-.668-3.033c-.219-1.338-.381-2.679-.543-4.02-.063-.518-.168-1.453-.248-2.008-.041-.283.053-.605-.199-.843-.025-.023-.107.01-.123.036-.151.248-.306 1.063-.33 1.204a21.356 21.356 0 0 0-.304 3.642c0 3.2.64 6.375 1.018 9.561.014.112.026.225.029.338.001.022-.004.086-.015.065-.037-.07-.046-.145-.065-.218a33.072 33.072 0 0 1-.498-2.299c-.636-3.414-.938-6.837-.717-10.271.067-1.041.183-2.083.23-3.125.004-.082.086-.189-.009-.247-.078-.047-.056.131-.072.198-.048.209-.085.419-.12.629-.182 1.076-.25 2.153-.273 3.235-.045 2.167-.026 4.337.326 6.495.256 1.566.622 3.126.952 4.686.072.339.142.677.215 1.016.052.244-.014.512.174.73.038.044-.008-.101-.016-.151-.057-.345-.18-.9-.243-1.196-.357-1.653-.744-3.306-.948-4.97-.417-3.421-.363-6.87.032-10.291.01-.086-.099-.231.035-.259.133-.027-.014.171-.022.257-.024.261-.051.523-.074.784-.151 1.744-.113 3.472.061 5.215.239 2.406.544 4.836 1.159 7.219.049.191.214.77.141.087-.167-1.55-.333-3.076-.384-4.633-.058-1.745-.065-6.977-.239-5.234-.191 1.902.075 3.856.288 5.753.139 1.235.316 2.476.574 3.705.016.074.025.15.056.222.01.025.007-.05.006-.075-.005-.172-.045-.4-.071-.557-.392-2.388-.71-4.774-.862-7.174a37.416 37.416 0 0 1-.083-3.014c.01-.601.106-2.404.027-1.805-.14 1.056-.109 2.137-.103 3.193.01 1.772.108 3.54.282 5.308.019.195.062.78.026.586-.161-.883-.226-1.78-.312-2.666-.252-2.579-.258-5.154-.17-7.737.025-.742.091-1.484.118-2.226.003-.072.022-.145-.002-.215-.013-.038-.026.076-.031.115a12.06 12.06 0 0 0-.083 1.115c-.063 1.712.088 3.433.326 5.138.041.29.022.872.226 1.177.054.081.045-.173.045-.26-.001-.312-.04-.897-.054-1.172a55.989 55.989 0 0 1 .04-6.516c.018-.278-.06-.878.15-1.163.094-.128.09.275.105.415.061.576.097 1.153.152 1.73.216 2.295.386 4.63 1.014 6.9.044.159.09.319.158.475.083.189.144.246.199.037.192-.725-.069-1.56-.147-2.279-.217-2.014-.304-4.023-.36-6.04-.006-.229-.01-.458-.024-.687-.012-.179.061-.674-.117-.532-.087.07-.08.17-.105.256a5.272 5.272 0 0 0-.122.545 21.157 21.157 0 0 0-.215 1.829 31.56 31.56 0 0 0 .036 5.126c.032.365.03.115.011-.049-.118-1.006-.303-2.01-.436-3.016-.264-2.004-.34-4.012-.533-6.019-.025-.258-.049-.517-.088-.776a2.791 2.791 0 0 0-.096-.462c-.018-.058-.024-.198-.105-.166-.117.047-.085.165-.105.25a4.942 4.942 0 0 0-.091.614 24.94 24.94 0 0 0-.081 1.98c.006 2.437.461 4.856.644 7.286.09 1.205-.628-2.382-.813-3.583-.365-2.359-.525-4.721-.55-7.09-.004-.361.103-1.427-.069-1.082-.165.329-.102.686-.121 1.03a34.873 34.873 0 0 0-.036 2.445c.033 2.438.331 4.861.608 7.292.031.268.063.537.087.806.018.195.187.745 0 .587-.079-.067-.068-.16-.091-.241a8.343 8.343 0 0 1-.141-.549 41.325 41.325 0 0 1-.398-2.095c-.452-2.752-.597-5.48-.523-8.245a30.763 30.763 0 0 1 .157-2.477 1.048 1.048 0 0 1-.007.077c-.037.385-.041.379-.071.853-.244 3.78.153 7.539.569 11.308.041.372.084.743.114 1.115.018.212.035.424.029.635-.001.058.036.146-.049.172-.042.013-.545-1.75-.556-1.795-.6-2.533-.971-5.1-1.05-7.659-.028-.906.011-1.812-.007-2.717-.004-.246.11-.954-.071-.735-.08.096-.054.214-.07.322-.035.25-.06.5-.082.75-.242 2.792-.072 5.561.21 8.349.127 1.258.289 2.515.357 3.775.012.209.026.418.018.627-.003.073.042.171-.049.218-.062.032-.096-.083-.121-.13-.081-.155-.136-.314-.196-.472-.832-2.18-1.04-4.472-1.247-6.699a53.601 53.601 0 0 1-.201-3.819c-.001-.048-.011-.94-.018-1.097-.002-.056.016-.116-.018-.168-.018-.028-.028.06-.031.091-.091.936-.03 1.887.029 2.822.131 2.075.404 4.147.722 6.214.136.884.302 1.767.447 2.651.031.195.22.759.067.587-.065-.073-.052-.164-.072-.246a16.49 16.49 0 0 1-.134-.607c-.507-2.521-.843-5.064-.925-7.603a81.72 81.72 0 0 1-.015-3.835c.004-.287.026-.575.011-.862-.001-.022-.014-.086-.018-.065-.023.111-.029.222-.038.334-.206 2.589-.005 5.162.333 7.744.167 1.279.361 2.557.567 3.834.018.109.127.759.139.935.005.089-.089-.17-.112-.257-.649-2.505-.943-5.058-1.193-7.587-.121-1.222-.184-2.444-.252-3.667-.004-.058-.184-2.096-.436-2.006-.139.049-.172.171-.21.267-.199.504-.335 1.548-.384 1.983a32.73 32.73 0 0 0-.143 5.787c.09 1.419.255 2.835.364 4.253.031.403.095 1.143.058 1.602-.021.259-.062.335-.172.049-.305-.791-.402-1.64-.527-2.445a30.026 30.026 0 0 1-.371-3.867c-.037-1.505.032-3.011.094-4.515.024-.578.063-1.155.08-1.733.004-.129.008-.257 0-.386-.004-.065.071-.186-.036-.196-.103-.009-.06.123-.073.187-.108.514-.134 1.132-.145 1.629-.039 1.606.068 3.214.236 4.816.157 1.489.389 2.974.682 4.454.104.528.207 1.009.335 1.528.033.133.032.515.129.395.168-.206-.079-1.179-.091-1.308a110.135 110.135 0 0 1-.322-3.966 64.018 64.018 0 0 1-.116-4.509c.013-.991.149-1.983.129-2.973-.033-1.71-.451 3.411-.446 5.12.003 1.395.067 2.79.185 4.183.098 1.156.346 2.332.304 3.49-.036.971-.459-1.921-.628-2.887-.202-1.157-.391-2.316-.596-3.473-.072-.403-.663-4.054-1.061-5.059-.022-.054-.233-.106-.255-.052-.094.23-.174 1.905-.179 2.073-.048 1.81.127 3.621.38 5.423.177 1.26.435 2.516.623 3.776.047.311.15 1.24.043.936-.233-.661-.303-1.369-.418-2.037a61.669 61.669 0 0 1-.71-5.801 62.064 62.064 0 0 1-.155-3.367c-.006-.284-.007-.568-.015-.853-.008-.278.092-1.09-.083-.833-.074.109-.057.233-.071.351a23.312 23.312 0 0 0-.116 1.785c-.032 2.171.24 4.345.495 6.509.205 1.728 1.119 6.892.642 5.184-.861-3.082-1.239-6.215-1.401-9.337-.061-1.178-.135-2.395.011-3.575.076-.613.087 1.23.127 1.845.236 3.583.858 7.121 1.528 10.68.093.491.351 1.967.264 1.475-.083-.468-.16-.938-.239-1.407-.5-2.977-.883-5.968-.856-8.963.003-.316.018-.633.034-.949.011-.213.022-.426.047-.639.007-.066-.051-.22.049-.196.113.027.043.147.054.221.028.205.191 1.819.192 1.829.372 3.428 1.047 6.826 1.847 10.225.075.317.294 1.266.275.946-.062-1.04-.387-2.082-.541-3.118-.29-1.957-.385-3.917-.455-5.881-.019-.51-.048-1.02-.041-1.53.001-.071.05.138.058.208.804 6.763-.681-4.821.516 4.71.244 1.94.52 3.88.914 5.812.157.769.354 1.536.48 2.308.275 1.676-.971-3.319-1.275-4.994-.554-3.05-.892-6.181-.362-9.243.1-.579.307-1.258.369-.045.217 4.307-.252-2.687.12 3.536.133 2.219.283 3.684.556 5.924.238 1.946.561 3.886.849 5.829.025.169.051.338.065.508.004.05.049.358-.085.136-.289-.48-.399-1.057-.538-1.551-.594-2.112-1.055-4.244-1.305-6.383a27.603 27.603 0 0 1-.127-5.212c.079-1.09.559-4.347.503-3.257-.042.797-.222 1.6-.286 2.397-.223 2.76-.251 5.526.026 8.286.135 1.34.388 2.675.626 4.01.1.564.388 1.361.331 1.958-.042.43-.213-.851-.315-1.277-.482-1.996-.939-3.992-1.111-6.009-.17-2.001-.148-4.009-.044-6.011.041-.801-.001-1.758.348-2.551.024-.054.064-.187.13-.148.111.067.075.186.091.281.031.184.039.369.047.553.064 1.508-.007 3.017.076 4.526.151 2.747.357 5.527 1.046 8.247.028.114.26.998.062-.006-.396-2.005-.85-4.006-1.097-6.021a28.258 28.258 0 0 1-.181-4.785c.028-.586.112-1.487.215-2.104.024-.145.119-.572.152-.427.159.694.011 1.53.031 2.212.083 2.774.312 5.548.768 8.309.172 1.034.431 2.059.626 3.091.061.323.202 1.743-.04-.163a222.917 222.917 0 0 1-1.077-10.696 75.26 75.26 0 0 1-.145-2.324c-.008-.163-.045-.649.011-.49.052.147.097 1.575.098 1.602.207 3.415.876 6.848 1.787 10.217.155.572.338 1.143.516 1.712.021.065.097.336.045.092-.432-2.045.545 2.697-.288-1.319-.688-3.314-1.358-6.67-1.369-10.016a31.575 31.575 0 0 1 .212-3.607c.019-.175.113-.693.138-.518.033.226.066 1.561.067 1.593.062 1.656.158 3.308.387 4.959.343 2.474.947 4.925 1.566 7.378.179.71.514 1.538.509 2.271-.001.212-.2-.407-.272-.614a90.506 90.506 0 0 1-.738-2.233c-1.041-3.419-1.283-6.883-1.206-10.357.021-.96-.042-2.074.259-3.034.237-.754.145 1.533.154 2.301.041 3.358.432 6.68.968 10.02.107.672.414 1.574.241 2.271-.021.085-.212-.123-.25-.205-.151-.327-.438-1.192-.514-1.454a27.349 27.349 0 0 1-1.032-9.504c.019-.275.051-.55.098-.824.031-.178.057-.358.134-.531.03-.067.07-.171.183-.175.582-.02.837 3.147.851 3.236a180.932 180.932 0 0 0 1.919 10.036l.083.373a7.38 7.38 0 0 0-.025-.115c-.289-1.259-.587-2.516-.822-3.78a47.437 47.437 0 0 1-.804-7.424c-.005-.18-.006-.36-.009-.541v-.115c0 .085-.002.17 0 .255.064 2.03.312 4.057.603 6.078.279 1.931.769 3.845 1.064 5.774.313 2.045-.849-4.079-1.021-6.13a30.878 30.878 0 0 1-.119-3.426c.007-.243.023-.487.043-.73.013-.156.027-.313.056-.469.007-.04.009-.147.051-.116.064.047.032.121.038.182.047.473.054.947.085 1.421.121 1.854.3 3.707.594 5.554.157.987.363 1.971.579 2.954.023.107.048.214.069.321a.993.993 0 0 1-.027-.107c-.114-.498-.164-.713-.241-1.281a21.866 21.866 0 0 1-.134-1.193 13.344 13.344 0 0 1-.054-1.148c.001-.167-.181-.575.063-.5.282.086.131.379.17.571.08.404.136.809.187 1.214.341 2.682-.036.049.206 2.427" stroke="#000" stroke-width="3" stroke-linecap="round"/>
  <path d="M207.974 375.917c-.116 1.168-.147 1.352-.186 2.819-.074 2.762-.279 5.636.435 8.376.134.513.379 1.032.623.337.205-.586.074-1.245.05-1.839-.097-2.417-.2-4.891.258-7.298.404-2.119-.455 4.261-.575 6.394-.092 1.624-.013 3.248.017 4.871.004.25.019.782-.004 1.078-.017.209-.081.307-.195.046-.431-.984-.513-2.06-.631-3.071-.233-1.997-.37-4.008-.207-6.01.045-.554.151-1.391.241-1.945.077-.471.117-1.041.345-1.503.04-.08.039.167.032.251-.062.719-.207 1.434-.322 2.15-.568 3.553-.524 7.102-.334 10.665.013.252.075.506.017.755-.062.266-.249-.512-.339-.774a25.95 25.95 0 0 1-1.32-6.024c-.185-1.97-.333-3.991.119-5.952.05-.22.215-.775.317-1.017.182-.433.178.008.174.139-.062 1.777-.251 3.551-.271 5.33-.024 2.042.212 4.077.567 6.105.129.738.569 2.949.423 2.212-.189-.954-.377-1.91-.508-2.868-.285-2.084-.42-4.185-.305-6.278.04-.724.139-1.75.233-2.471.096-.739.173-1.518.442-2.245.028-.073.043-.154.113-.215.02-.019.079.013.09.035.217.413.067 1.013.045 1.43-.105 1.952-.2 3.899-.108 5.854.073 1.547.296 3.083.552 4.622.036.216.086.432.11.65.029.264-.146-.521-.216-.781-.424-1.586-.824-3.166-.96-4.774a32.372 32.372 0 0 1 .049-6.06c.057-.556.135-1.311.253-1.888.029-.141.065-.281.117-.418.033-.088.089-.294.199-.238.056.029.041.089.044.135.02.253-.057.947-.07 1.086-.116 1.272-.246 2.543-.321 3.816-.122 2.054-.019 4.107.207 6.157.117 1.058.092.707.207 1.583.025.185.087.724-.038.556-.09-.121-.24-.551-.266-.634-.258-.824-.395-1.666-.502-2.502-.281-2.204-.411-4.442-.133-6.649.081-.647.251-1.544.41-2.183.161-.642.315-1.381.716-1.991.107-.163.173-.196.239 0 .187.556.095 1.182.082 1.743-.091 3.953-.008 7.889.8 11.814.023.11.127.6.165.748.007.027.025.108.03.081.036-.201-.062-.403-.102-.603-.313-1.577-.676-3.145-.791-4.734-.166-2.288-.158-4.596.366-6.866.109-.474.23-.915.414-1.375 0 0 .251-.66.324-.206.039.241.019.82.013 1.025-.031 1.019-.078 2.039-.102 3.058-.048 2.078-.012 4.145.237 6.217.101.84.234 1.681.381 2.518.107.607.321 1.247.347 1.861.01.227-.227-.431-.305-.653-.262-.744-.418-1.5-.556-2.258-.414-2.271-.676-4.562-.645-6.85a10.71 10.71 0 0 1 .122-1.519c.013-.074.085-.89.303-.962.186-.061.061.266.061.4 0 .926-.063 1.854-.093 2.78-.067 2.086-.08 4.162.136 6.246.199 1.93.487 3.859.96 5.77.053.216.139.53.199.756.007.027.041.107.021.082-.103-.132-.098-.288-.146-.432-1.348-4.022-1.967-8.101-1.61-12.213.122-1.409.382-2.819.808-4.205.035-.112.072-.224.119-.334.02-.048.013-.114.08-.138.046-.016.036.063.04.096.029.212.009.854.007.951-.069 3.709-.051 7.386.791 11.065.133.581.257 1.082.415 1.652.033.118.066.237.106.354.015.046.001-.094-.009-.14-.244-1.17-.516-2.336-.73-3.509a32.192 32.192 0 0 1-.434-7.992 13.634 13.634 0 0 1 .572-3.13c.032-.107.103-.422.144-.315.087.23.019.474.012.712-.024.891-.087 1.781-.108 2.672-.055 2.352.059 4.709.413 7.051.097.644.277 1.584.423 2.245.093.419.173.869.358 1.28.087.195.048-.017.034-.117-.14-.991-.346-1.978-.489-2.968-.349-2.41-.596-4.854-.377-7.274.065-.715.152-1.166.307-1.872.136-.622.231-1.319.548-1.921.341-.649.121 1.368.106 2.053-.044 2.039.002 4.072.203 6.108.166 1.682.441 3.351.867 5.014.016.063.161.634.216.799.075.221-.066-.45-.114-.673-.84-3.887-1.637-7.807-.872-11.728.05-.254.188-.86.326-1.152.023-.05.04-.122.118-.136.057-.011.075.061.085.098.038.138.045.279.057.418.144 1.668.054 3.344.146 5.013.101 1.817.305 3.619.662 5.423.136.685.278 1.37.417 2.056.007.032.055.118.019.095-.156-.099-.067-.278-.103-.416-.358-1.363-.747-2.718-.931-4.096-.278-2.074-.417-4.177-.265-6.258.034-.46.078-.815.163-1.266.047-.247.129-.958.267-.726.131.221.062.471.072.707.046 1.169.067 2.338.127 3.507.106 2.092.229 4.189.626 6.267.091.475.282 1.341.389 1.824.068.307.309.851.239 1.186-.022.107-.105-.206-.141-.312a23.109 23.109 0 0 1-.517-1.718 33.187 33.187 0 0 1-1.02-6.864c-.054-1.226-.083-2.474.166-3.693.019-.095.067-.369.114-.278.184.361.066 1.011.076 1.356.104 3.455.445 6.909 1.147 10.337.007.036.158.728.163.891.008.317-.27-.611-.371-.921-.53-1.63-.92-3.256-1.115-4.917-.204-1.744-.405-3.542-.146-5.289.025-.165.045-.846.33-.981.032-.015.084.018.098.042.084.148.165.738.173.796.26 1.832.345 3.673.614 5.505.259 1.769.675 3.536 1.13 5.289.077.299.154.569.249.861.072.218-.142-.437-.213-.656-.487-1.496-.965-3.001-1.221-4.522-.391-2.322-.589-4.738-.131-7.063.041-.208.047-.754.277-.604.263.172.147 1.159.154 1.306.17 3.251.401 6.496.99 9.728.043.231.145.76.178 1.028.01.083.017.166.017.249 0 .003.023.253-.089.089-.119-.177-.301-.655-.345-.765-.33-.845-.666-1.708-.865-2.57-.222-.962-.275-1.842-.296-2.825a33.555 33.555 0 0 1 .021-2.006c.02-.512.032-1.026.114-1.536.017-.106.088-.384.182-.297.191.177.14.421.182.634.068.343.103.688.146 1.032.152 1.202.245 2.406.391 3.609.202 1.648.492 3.286.811 4.926.027.139.156.758.165.974.002.047.042.125-.028.14-.066.015-.1-.065-.135-.104a2.424 2.424 0 0 1-.233-.303c-.908-1.39-1.528-2.89-2.052-4.355-.721-2.015-1.287-4.07-1.555-6.131-.087-.668-.061-.526-.119-1.076-.005-.053.064-.161-.019-.158-.083.004-.01.106-.012.159a10.78 10.78 0 0 0-.017.44c-.03 1.74.066 3.486.283 5.22.221 1.757.609 3.504.973 5.251.001.002.287 1.318-.046.562a19.108 19.108 0 0 1-1.05-3.158c-.452-1.837-.802-3.704-.875-5.564a8.022 8.022 0 0 1 .044-1.353c.02-.184.004-.841.247-1.031.094-.073.08.184.089.278.054.537.053 1.076.081 1.613.106 2.084.311 4.165.626 6.241.058.383.183 1.094.229 1.508.018.166.025.644-.096.496-.111-.136-.302-.55-.347-.642a14.482 14.482 0 0 1-.721-1.756 25.226 25.226 0 0 1-1.073-4.809 13.232 13.232 0 0 1-.091-1.079c-.011-.209-.094-.826-.008-.625.062.146.056.3.076.451.08.611.133 1.225.205 1.837.202 1.712.491 3.419.785 5.126.127.738.288 1.479.288 2.218m-3.551-69.774c.013.191.046.701.07.866.013.094-.064.318.065.28.148-.043.066-.213.077-.321.042-.405.059-.811.082-1.216.106-1.906.119-3.818.375-5.719.017-.129.098-.659.122-.803.013-.079.016-.397.1-.488.054-.058-.009.138-.019.207-.042.315-.094.63-.154.944-.276 1.437-.624 2.866-.824 4.31-.235 1.699-.25 3.408-.489 5.107-.033.24-.11.677-.179.938-.036.136-.093.284-.12.056-.081-.681-.025-1.379-.023-2.061.009-2.626.1-5.281.709-7.88.046-.196.131-.498.216-.701.04-.095.185-.343.237-.25.053.095.036.351.034.407-.023.696-.111 1.392-.177 2.087-.145 1.532-.301 3.06-.314 4.596-.009 1.149.083 2.305.013 3.454-.094 1.533-.198-3.066-.225-4.6a40.109 40.109 0 0 1 .17-4.674c.061-.62.036-1.393.352-1.993.026-.049.01.103.004.154-.06.494-.139.987-.208 1.48-.219 1.57-.429 3.14-.66 4.709-.182 1.24-.341 2.485-.583 3.72-.163.832-.296-.453-.309-.561-.367-2.862-.273-5.781.171-8.636.004-.03.365-2.136.491-2.113.265.048-.011 1.763-.019 1.854a126.442 126.442 0 0 0-.317 5.066c-.042 1.11-.031 2.222-.098 3.331-.087 1.438-.096-2.879-.012-4.316.076-1.306.156-2.62.499-3.909.091-.342.18-.646.324-.976.037-.084.073-.17.13-.249.095-.131.129.014.135.064.125 1.029-.155 2.119-.292 3.142a93.662 93.662 0 0 0-.532 4.765c-.059.731-.05 1.471-.175 2.198-.011.067-.025.158-.041.043-.047-.344-.05-.697-.065-1.042-.041-.969-.041-1.936.078-2.902.047-.387.092-.695.187-1.072.027-.107.054-.214.098-.318.016-.037.094-.201.159-.055.072.163.146.681.159.781.097.731.141 1.465.195 2.198.145 1.947.286 3.895.339 5.844.031 1.154.086 2.341-.125 3.489-.131.717-.315-.493-.324-.541-.2-1.164-.329-2.33-.381-3.5-.052-1.185-.126-2.407.112-3.586.311-1.536.511 3.083.661 4.63.096 1 .224 2 .277 3.001.037.715-.041-.123-.049-.309a59.825 59.825 0 0 1-.067-2.903c.005-.994-.053-2.041.234-3.022.151-.517.352.279.371.363.279 1.239.421 2.5.53 3.75.065.755.193 1.557.067 2.314-.006.037-.04.141-.059.106-.146-.269-.169-.634-.237-.908-.44-1.795-.778-3.568-.941-5.383-.144-1.6.012 3.206.012 4.809 0 .255-.005.665-.012.926-.004.156.032.404-.047.563-.014.028-.052-.052-.059-.082-.091-.381-.142-.771-.204-1.154-.144-.902-.249-1.801-.261-2.709a8.91 8.91 0 0 1 .019-.849c.006-.078.075-.298.104-.223.213.55.278 1.149.381 1.712.116.634.223 1.268.352 1.901" stroke="#000" stroke-width="3" stroke-linecap="round"/>
  <path d="M207.566 332.512c-.256 1.304-.537 2.607-.816 3.909-.133.618-.263 1.236-.403 1.854-.05.223-.003.468-.167.666-.133.162.042-.366.071-.549.065-.42.137-.84.209-1.261.298-1.761.634-3.526 1.097-5.274.034-.127.089-.497.152-.374.116.227-.172.765-.227.97-.622 2.31-1.226 4.623-1.572 6.958l-.09.619-.062.423c-.011.076.026.162-.035.226-.049.052-.007-.121-.007-.181.003-.243.006-.485.016-.728.041-1.104.109-2.367.206-3.453.169-1.873.282-3.836.99-5.666.071-.184.38-.681.431-.495.095.353.03.78.018 1.127-.042 1.206-.147 2.41-.198 3.616a60.823 60.823 0 0 0-.007 4.271c.019.703.116 1.425.048 2.129-.084.875-.191-1.75-.173-2.627.042-2.076.255-4.147.653-6.207.13-.673.67-2.657.71-1.98.038.652-.202 1.35-.317 1.993-.215 1.209-.417 2.418-.545 3.633a87.988 87.988 0 0 0-.268 3.157c-.05.717-.042 1.447-.174 2.16-.085.46-.165.184-.196-.087-.124-1.115-.162-2.236-.182-3.353-.042-2.284.202-4.571.644-6.837.093-.475.133-1.193.576-1.612.249-.235.198.561.185.846-.108 2.425-.338 4.839-.284 7.267.024 1.052.057 2.104.112 3.156.028.523.131 1.062.093 1.586-.009.124-.082-.242-.099-.366-.158-1.129-.228-2.266-.275-3.4-.103-2.482.125-5.022.849-7.464.004-.014.157-.71.378-.713.264-.004.128 1.227.128 1.238-.144 2.804-.264 5.597-.194 8.404.019.78.056 1.56.064 2.34.002.252.004 1.003-.055.755-.141-.591-.136-1.22-.178-1.813-.101-1.395-.184-2.793-.161-4.191.016-.96.079-1.923.198-2.88.094-.754.156-1.607.576-2.327.05-.084.108-.13.15-.017.039.106.071.441.075.523.045 1.019-.073 2.044-.088 3.062-.036 2.363.092 4.72.257 7.079.044.625.134 1.257.134 1.883 0 .188-.09-.372-.114-.559-.266-2.078-.227-4.18-.036-6.259.072-.771.168-1.56.409-2.318.196-.614.378-.028.427.234.155.829.156 1.676.189 2.51.05 1.245.087 2.49.145 3.735.055 1.156.125 2.312.216 3.467.016.206.087 1.063.103 1.331.008.14.156.335-.015.42-.025.013-.04-.032-.049-.051-.055-.123-.142-.481-.162-.563a35.122 35.122 0 0 1-.475-2.353c-.308-1.813-.521-3.656-.447-5.482.003-.06.006-.121.016-.181.002-.016.029.027.03.043.062.778.065 1.559.115 2.338.185 2.909.517 5.807.937 8.705.073.509.184 1.026.206 1.538.016.364-.219-.17-.222-.176-.395-.951-.618-1.941-.851-2.913a19.34 19.34 0 0 1-.536-3.599c-.044-.926-.068-1.862.057-2.786.025-.188.113-.7.264-.92.083-.122.211-.099.272.008.1.174.164.676.181.801.044.33.132 1.228.162 1.538.14 1.417.283 2.835.462 4.251.125.981.272 1.961.414 2.941.082.569.233 1.176.176 1.75-.003.024-.001.086-.031.071-.184-.089-.159-.279-.22-.423a24.563 24.563 0 0 1-1.051-3.07c-.591-2.144-.865-4.334-.97-6.509a14.645 14.645 0 0 1-.022-.912c.001-.113-.067-.428.033-.336.124.113.033.277.037.416.015.447.018.894.027 1.342.053 2.558.163 5.101.534 7.648.142.975.346 1.945.488 2.919.032.217.127.44.049.652-.029.077-.116-.141-.145-.217-.217-.558-.365-1.134-.519-1.7-.403-1.478-.77-2.964-1.001-4.458a24.233 24.233 0 0 1-.301-3.901c.006-.77.015-1.588.233-2.348.012-.041.008-.136.066-.117.072.023.04.102.05.154.02.101.029.204.038.306.094 1.084.124 2.171.198 3.256.179 2.623.565 5.224 1.055 7.83.09.475.192.965.185 1.446-.004.247-.104-.081-.106-.085-.046-.134-.361-1.173-.365-1.184-.793-2.654-1.283-5.342-1.385-8.047a39.335 39.335 0 0 1-.002-2.853c.014-.424.132-1.695.081-1.272-.272 2.27-.32 4.547-.295 6.823.026 2.233.318 4.444.607 6.667.014.102.028.204.038.306.003.037.059.108.002.111-.058.004-.035-.072-.048-.108a5.444 5.444 0 0 1-.097-.298 33.713 33.713 0 0 1-.682-2.647c-.557-2.583-.938-5.181-.851-7.791.026-.772.049-1.551.18-2.319.03-.174.023-.017.02.063-.007.192-.044.779-.05.901a54.617 54.617 0 0 0 .09 7.437c.122 1.488.991 5.921.567 4.456-.587-2.029-.853-4.139-1.053-6.197-.144-1.486-.158-2.977-.11-4.466.024-.758.222-1.588.114-2.346-.059-.421-.187.835-.253 1.254-.25 1.6-.472 3.203-.488 4.812-.013 1.376.081 2.753.172 4.128.022.342.079 1.175.088 1.563.012.583-.044-.228-.058-.051" stroke="#000" stroke-width="3" stroke-linecap="round"/>
  <path d="M206.375 352.84c-.256 2.712-.873 10.856-.613 8.143.244-2.549.615-5.067 1.308-7.586.165-.601.288-1.302.705-1.866.08-.108.135-.156.151-.003.019.183-.057.547-.083.688-.553 2.972-1.049 5.933-1.014 8.929.011.927.065 1.855.045 2.781a2.607 2.607 0 0 1-.025.353c-.006.046.014.11-.047.136-.155.065-.137-.221-.171-.336-.626-2.141-.596-4.376-.498-6.542.05-1.11.184-2.214.395-3.317.05-.262.171-.834.256-1.126.037-.125.011-.291.176-.365.104-.046.144.139.166.218.063.229.088.58.094.802.03 1.123-.058 2.249-.058 3.373 0 1.76.205 3.501.292 5.257.026.52-.049.284-.128-.056-.207-.885-.41-1.771-.537-2.661-.356-2.492-.465-5.018-.268-7.517.031-.394.062-.732.113-1.121.016-.126-.036-.479.078-.375.153.139.026.338.032.507.022.628.026.793.063 1.468.132 2.426.383 4.853.683 7.273.097.783.255 1.56.369 2.341.005.037.062.743-.086.248-.235-.783-.308-1.597-.4-2.391a25.936 25.936 0 0 1-.144-3.653c.029-1.125.397-4.454.697-3.346.322 1.189.342 2.473.494 3.665.41 3.204.154 1.154.537 4.065.054.405.113.809.156 1.214.014.137.079.28.015.411-.038.078-.079-.156-.101-.236-.074-.267-.13-.536-.189-.804a29.97 29.97 0 0 1-.705-5.819c-.021-.963.017-1.933.144-2.894.031-.24.119-.868.229-.176.394 2.478.508 4.968.962 7.445.169.923.692 3.69.481 2.771a27.322 27.322 0 0 1-.715-5.731 31.551 31.551 0 0 1 .166-3.8 8.4 8.4 0 0 1 .14-.881c.023-.097.038-.36.134-.283.194.156.083.393.099.59.007.089.088 1.362.09 1.401.086 1.27.188 2.539.297 3.808.073.85.172 1.698.278 2.547.053.418.13.99.16 1.421.013.181.102.381-.029.542-.056.068-.132-.132-.16-.206-.1-.267-.191-.64-.254-.896a27.702 27.702 0 0 1-.559-3.087c-.278-2.178-.445-4.379-.11-6.559.002-.015.052-.357.096-.451.026-.056.025.114.025.172 0 .645-.029 1.289-.034 1.934-.016 2.515.212 5.01.472 7.518.04.382.133.8.086 1.184-.055.447-.143-.891-.2-1.338-.288-2.25-.424-4.527-.225-6.783.062-.708.192-1.419.377-2.12.12-.452.131-.137.131.059 0 1.679-.087 3.354-.009 5.033.062 1.339.206 2.672.413 4.006.085.546.202 1.096.22 1.646.041 1.2-.701-2.366-.849-3.563-.263-2.128-.269-4.283-.126-6.414.032-.469.06-.942.13-1.409.008-.052.001-.107.032-.155.012-.019.03.035.034.055.042.207.091.953.094.993.237 2.915.734 5.808 1.31 8.703.161.81.374 1.611.589 2.415.01.039.026.154.005.117a3.463 3.463 0 0 1-.185-.44c-.671-1.864-.807-3.827-.959-5.728-.115-1.427-.235-2.868-.16-4.297.012-.227.05-.226.063 0 .036.606.037 1.212.076 1.818.133 2.008.339 4.026.715 6.022.077.41.223.83.234 1.245.006.251-.131-.496-.18-.746-.427-2.155-.618-4.319-.688-6.49a34.84 34.84 0 0 1-.009-2.626c.017-.392.006-.805.104-1.194.054-.217.044.439.049.658.018.749.028 1.498.032 2.247.01 2.373.091 4.742.274 7.112.046.595.117 1.193.117 1.79 0 .048-.019.642-.212.241-.256-.534-.344-1.12-.481-1.667-.278-1.121-.559-2.244-.734-3.374-.298-1.914-.437-3.872-.241-5.794.048-.468.088-.013.101.147.065.791.049 1.585.068 2.377.061 2.62.347 5.226.735 7.835.308 2.076.746 4.176.831 6.262.018.433-.195-.137-.216-.195-.274-.776-.458-1.567-.656-2.351-.498-1.979-.849-3.973-.67-5.98.025-.273.03-.64.221-.899.07-.095.124-.114.209-.013.103.124.141.338.166.46.439 2.182.455 4.4.787 6.59a52.166 52.166 0 0 0 1.022 5.118c.284 1.109-.191-2.243-.324-3.362-.232-1.961-.407-3.944-.204-5.909.033-.322.081-1.276.195-.961.224.617.134 1.352.187 1.977a72.567 72.567 0 0 0 1.175 8.225c.226 1.121 1.009 4.473.728 3.357-.918-3.653-1.628-7.311-1.856-11.009a20.841 20.841 0 0 0-.049-.669c-.004-.033.004-.07-.023-.099-.013-.014-.023.03-.027.046-.12.579-.092 1.185-.076 1.767.095 3.413.674 6.785 1.546 10.152.2.771.408 1.542.632 2.311.042.145.21.706.263.91.017.068.12.228.017.205-.22-.05-.536-1.131-.543-1.149-.542-1.35-.964-2.718-1.34-4.09a34.22 34.22 0 0 1-1.173-7.798c-.009-.235-.009-.926-.11-.701-.236.529-.201 1.163-.232 1.701-.139 2.426.044 4.831.481 7.242.219 1.205.514 2.405.765 3.608.012.062.151.734.17.835.017.089.092.351.036.269-.086-.128-.091-.271-.135-.407-.248-.778-.096-.302-.395-1.222-.367-1.129-.735-2.257-1.011-3.397-.7-2.878-1.114-5.789-1.165-8.701-.009-.528.009-1.055.009-1.583 0-.143.138-.326-.022-.427-.139-.087-.058.244-.074.367-.291 2.248-.033 4.552.364 6.787.491 2.766 1.2 5.535 2.402 8.217.005.01.229.531.342.651.057.06.085-.134.083-.204-.029-1.024-.36-2.056-.598-3.065-.684-2.904-1.114-5.821-1.207-8.758-.038-1.225-.032-2.458.149-3.679.049-.333.13-1.323.224-.993.132.458.044.986.059 1.445a59.18 59.18 0 0 0 .319 4.661c.323 2.86.943 5.693 1.654 8.523.104.415.227.831.292 1.25.069.438-.377-.85-.541-1.278a46.486 46.486 0 0 1-2.322-8.068 35.784 35.784 0 0 1-.458-3.051c-.049-.444-.068-.89-.122-1.334-.025-.211.189-.542-.117-.631-.265-.077-.169.355-.202.538a23.107 23.107 0 0 0-.256 2.055c-.181 2.098-.232 3.573-.09 5.672.132 1.948.573 3.868 1.043 5.792.074.302.286 1.209.193.909-.477-1.549-1.028-3.087-1.447-4.643a43.529 43.529 0 0 1-1.497-10.299c-.017-.721.017-1.442.014-2.162-.001-.064-.004-.256-.018-.192a8.993 8.993 0 0 0-.072.59 35.308 35.308 0 0 0-.135 3.915c.073 2.688.643 5.381 1.209 8.041.18.845.284 1.705.647 2.527.143.323-.085-.67-.153-1.003-.322-1.575-.669-3.148-.921-4.729-.418-2.622-.588-5.306-.216-7.935.033-.231.107-.66.18-.915.009-.033.08-.118.085-.085.147.887.064 1.804.117 2.693.201 3.353.606 6.741 1.668 10.034.183.57.362 1.145.593 1.708.184.449.131-.168.126-.206-.131-1.015-.382-2.025-.542-3.038a70.325 70.325 0 0 1-.611-4.816c-.196-2.252-.082-4.482.067-6.731.034-.51-.181 1.016-.244 1.525a33.986 33.986 0 0 0-.234 4.77c.045 2.713.474 5.406.777 8.109.005.039.276 1.298-.022 1.361-.151.032-.197-.161-.256-.254a9.525 9.525 0 0 1-.454-.87c-1.372-2.963-2.434-6.047-2.908-9.121-.206-1.335-.307-2.678-.364-4.018-.012-.265.006-1.058-.063-.796-.507 1.923-.532 3.936-.439 5.877.127 2.638.4 5.328 1.167 7.929.143.484.171-.027.171-.136-.007-.997-.211-1.997-.342-2.99a35.408 35.408 0 0 1-.09-8.698c.035-.299.082-.707.162-1.02.02-.079.07-.29.139-.223.139.134.085.316.095.477.02.326.012.76.013 1.075.01 3.05.189 6.102.746 9.133.227 1.236.463 2.481.879 3.699.026.076.046.153.088.227.009.017.011-.037.009-.055-.03-.203-.201-.887-.218-.959-.768-3.165-1.244-6.341-1.324-9.545a25.14 25.14 0 0 1 .09-2.702c.035-.43.148-1.717.184-1.287.059.705-.09 1.431-.135 2.134a32.094 32.094 0 0 0 .036 4.297c.166 2.355.488 4.719 1.371 7.016.506 1.316-.482-2.691-.746-4.035-.424-2.158-.546-4.362-.492-6.535.003-.133-.092-.508.031-.4.113.1.002.244-.006.366-.069 1.019-.166 2.037-.225 3.056-.165 2.814.038 5.619.404 8.424.018.134.118.833.131 1.06.003.065.004.238-.068.191-.098-.064-.175-.308-.186-.339-.108-.29-.234-.731-.313-1.005a26.137 26.137 0 0 1-1.002-6.212c-.031-.826-.048-1.663.045-2.487.005-.042.042-.163.045-.122.008.117-.004.596-.005.658a48.25 48.25 0 0 0 .364 6.64c.112.883.266 1.761.432 2.64.086.456-.006.004-.031-.141-.372-2.111-.719-4.211-.828-6.336-.052-1.026.058-4.104-.053-3.08a106.05 106.05 0 0 0-.4 4.348c-.04.585-.053 1.171-.099 1.756a1.44 1.44 0 0 1-.081.299" stroke="#000" stroke-width="3" stroke-linecap="round"/>
  <path transform="matrix(-.04597 .99894 -.9998 -.02026 107.918 233.906)" stroke="#000" stroke-width="3" d="M0-1.5h205.258"/>
  <path fill="#000" d="M99.699 294.913h6v146.976h-6z"/>
  <path d="m92.2 433.724 9.999-.48v7.685h-10v-7.205Z" fill="#000"/>
  <path stroke="#000" stroke-width="3" d="M106.199 443.811V329.496"/>
  <path d="M109.262 328.128c-1.039 1.009-1.402 2.241-2.187 3.319a6.74 6.74 0 0 1-.666.806c-.339.343-.57.454-.478-.013.225-1.139.992-2.315 1.685-3.384.636-.98 1.301-2.285 2.511-3.099.872-.586-.736 1.481-1.15 2.214-.884 1.567-1.94 3.109-2.704 4.697-.166.345-.734 1.189-.53 1.581.11.211.575-.301.774-.49.618-.584 1.761-1.812 2.255-2.365a59.826 59.826 0 0 0 3.126-3.834c.26-.343.489-.695.78-1.029.089-.101-.128.214-.199.32-.649.97-1.257 1.949-1.885 2.923" stroke="#000" stroke-width="3" stroke-linecap="round"/>
  <path d="m100.199 295.874 6.5-4.803" stroke="#000" stroke-width="3"/>
  <path d="M105.699 293.953c-.41.189-.926.367-1.383.549-.185.074-.713.231-.602.336.056.052.36.08.547.075.553-.016.825-.275.968-.378.101-.072.619-.466-.098-.48a1.239 1.239 0 0 0-.547.103c-.168.082-.296.173-.268.267.012.04.068.105.137.142.254.137-.014-.03.262.073m3.842 32.719c.363-.502.729-1.002 1.033-1.516.035-.06.161-.228.086-.181-.523.324-.886.802-1.298 1.176-.144.131-.358.224-.495.352-.413.386-.687.821-1.054 1.221-.58.633.936-1.324 1.527-1.953.061-.065.287-.293.51-.28.17.011.069.516.064.57a1.07 1.07 0 0 1-.165.515c-.042.064-.095.201-.003.028.203-.385.462-.776.634-1.163" stroke="#000" stroke-width="3" stroke-linecap="round"/>
  <path d="m100.699 294.913-6.927 138.962" stroke="#000" stroke-width="3"/>
  <path transform="matrix(.58454 .81137 -.83276 .55364 101.49 294.195)" stroke="#000" stroke-width="3" d="M0-1.5h2.069"/>
  <path d="M99.7 371.764v8.3-6.635 8.86-3.74 2.614-1.196" stroke="#000" stroke-width="3" stroke-linecap="round"/>
  <path transform="matrix(-.02881 .99958 -.99992 -.0127 97.204 382.212)" stroke="#000" stroke-width="3" d="M0-1.5h52.064"/>
  <path stroke="red" stroke-width="20" stroke-dasharray="30 30" d="M11 59.165h266V498H11z"/>
  <path d="M3.523 39V9.91h10.17c2.027 0 3.698.35 5.014 1.05 1.317.691 2.297 1.624 2.94 2.798.645 1.165.967 2.458.967 3.878 0 1.25-.223 2.283-.668 3.097-.436.814-1.013 1.458-1.733 1.932a7.887 7.887 0 0 1-2.315 1.05V24c.89.057 1.785.37 2.684.938.9.568 1.653 1.382 2.259 2.443.606 1.06.909 2.358.909 3.892 0 1.458-.331 2.77-.994 3.934-.663 1.165-1.71 2.088-3.14 2.77-1.43.682-3.29 1.023-5.582 1.023H3.523Zm3.522-3.125h6.99c2.3 0 3.934-.445 4.9-1.335.975-.9 1.463-1.989 1.463-3.267 0-.985-.251-1.894-.753-2.727-.502-.843-1.217-1.516-2.145-2.018-.928-.511-2.027-.767-3.296-.767H7.045v10.114Zm0-13.182h6.534c1.061 0 2.018-.208 2.87-.625.862-.417 1.543-1.004 2.045-1.761.512-.758.767-1.648.767-2.67 0-1.279-.445-2.363-1.335-3.254-.89-.9-2.301-1.349-4.233-1.349H7.045v9.66Zm35.789 7.386V17.182h3.352V39h-3.352v-3.693h-.228c-.51 1.108-1.306 2.05-2.386 2.826-1.08.768-2.443 1.151-4.09 1.151-1.364 0-2.577-.298-3.637-.895-1.06-.606-1.894-1.515-2.5-2.727-.606-1.222-.91-2.76-.91-4.616V17.181h3.353v13.636c0 1.591.445 2.86 1.335 3.807.9.947 2.046 1.42 3.438 1.42.833 0 1.68-.213 2.542-.639.872-.426 1.6-1.08 2.188-1.96.596-.88.895-2.003.895-3.366ZM52.326 39V17.182h3.352V39h-3.352Zm1.705-25.454a2.383 2.383 0 0 1-1.69-.668c-.465-.445-.697-.98-.697-1.605s.232-1.16.696-1.605A2.383 2.383 0 0 1 54.03 9c.654 0 1.213.223 1.677.668.473.445.71.98.71 1.605s-.237 1.16-.71 1.605a2.335 2.335 0 0 1-1.676.668Zm11.14-3.637V39h-3.353V9.91h3.353Zm14.378 29.546c-1.818 0-3.423-.46-4.815-1.378-1.392-.928-2.481-2.235-3.267-3.92-.786-1.696-1.18-3.699-1.18-6.01 0-2.29.394-4.28 1.18-5.965.786-1.686 1.88-2.988 3.28-3.906 1.402-.919 3.022-1.378 4.859-1.378 1.42 0 2.542.236 3.366.71.834.464 1.468.994 1.904 1.59.445.588.79 1.07 1.037 1.45h.284V9.909h3.352V39H86.31v-3.352h-.397c-.247.397-.597.9-1.051 1.505-.455.597-1.104 1.132-1.947 1.605-.842.464-1.965.697-3.366.697Zm.455-3.012c1.344 0 2.48-.35 3.409-1.051.928-.71 1.633-1.69 2.116-2.94.483-1.26.725-2.713.725-4.361 0-1.629-.237-3.054-.71-4.276-.474-1.23-1.175-2.187-2.103-2.869-.928-.691-2.074-1.037-3.437-1.037-1.42 0-2.605.365-3.552 1.094-.937.72-1.643 1.7-2.116 2.94-.464 1.231-.696 2.614-.696 4.148 0 1.553.237 2.964.71 4.233.483 1.26 1.193 2.263 2.13 3.011.948.739 2.122 1.108 3.524 1.108ZM96.154 39V17.182h3.352V39h-3.352Zm1.705-25.454a2.384 2.384 0 0 1-1.69-.668c-.465-.445-.697-.98-.697-1.605s.232-1.16.696-1.605A2.384 2.384 0 0 1 97.858 9c.654 0 1.213.223 1.677.668.473.445.71.98.71 1.605s-.237 1.16-.71 1.605a2.334 2.334 0 0 1-1.676.668Zm11.14 12.329V39h-3.353V17.182h3.239v3.409h.284a6.227 6.227 0 0 1 2.33-2.67c1.041-.682 2.386-1.023 4.034-1.023 1.477 0 2.77.303 3.878.909 1.107.596 1.969 1.506 2.585 2.727.615 1.212.923 2.746.923 4.602V39h-3.352V25.364c0-1.714-.445-3.05-1.335-4.006-.891-.966-2.112-1.449-3.665-1.449-1.07 0-2.027.232-2.87.696-.833.464-1.491 1.141-1.974 2.031-.483.89-.724 1.97-.724 3.239Zm28.853 21.761c-1.62 0-3.012-.208-4.177-.625-1.164-.407-2.135-.947-2.912-1.619-.767-.663-1.377-1.373-1.832-2.13l2.671-1.876c.303.398.686.853 1.15 1.364.464.52 1.099.97 1.904 1.35.814.388 1.879.582 3.196.582 1.761 0 3.215-.426 4.36-1.279 1.146-.852 1.719-2.187 1.719-4.005v-4.432h-.284c-.246.398-.597.89-1.051 1.477-.445.578-1.089 1.094-1.932 1.549-.833.445-1.96.667-3.381.667-1.761 0-3.342-.417-4.744-1.25-1.392-.833-2.495-2.045-3.31-3.636-.805-1.591-1.207-3.523-1.207-5.796 0-2.235.393-4.18 1.179-5.838.786-1.666 1.88-2.954 3.281-3.863 1.402-.919 3.021-1.378 4.858-1.378 1.421 0 2.548.236 3.381.71.843.464 1.487.994 1.932 1.59.454.588.805 1.07 1.051 1.45h.341v-3.466h3.238v22.443c0 1.875-.426 3.4-1.278 4.574-.843 1.184-1.979 2.05-3.409 2.6-1.421.558-3.002.837-4.744.837Zm-.114-11.988c1.345 0 2.481-.308 3.409-.924.928-.615 1.634-1.5 2.116-2.656.483-1.155.725-2.538.725-4.147 0-1.572-.237-2.96-.71-4.162-.474-1.203-1.175-2.145-2.103-2.827-.928-.682-2.073-1.023-3.437-1.023-1.421 0-2.604.36-3.551 1.08-.938.72-1.643 1.685-2.117 2.897-.464 1.213-.696 2.557-.696 4.035 0 1.515.237 2.855.711 4.02.482 1.155 1.193 2.064 2.13 2.727.947.653 2.121.98 3.523.98Z" fill="red"/>
  <path transform="matrix(.03311 .99945 -.99923 .03933 123.404 121.039)" stroke="#000" stroke-width="3" d="M0-1.5h318.087"/>
  <path d="M110.884 380.686c-1.38-2.298-3.086-4.472-4.358-6.821-.352-.65-.685-1.888-1.629-1.11-1.715 1.412-.863 3.752-1.837 5.417-.233.397-.697-1.854-.697-1.94 0-1.561-.133-3.056-.236-4.601-.075-1.105-.014-2.235-.014-3.343 0-.377.002-2.304-.181-2.047-1.722 2.417-1.757 5.699-3.216 8.239-.091.158-.112.757-.112.642 0-1.202.176-2.297.39-3.477.398-2.199.362-4.603.362-6.848 0-1.429-.097-3.405.306-4.761.514-1.727-.09-3.607.39-5.35.766-2.78.183-5.812 1.615-8.426.423-.773 1.181-1.428 1.671-2.167.981-1.481 1.279-3.536 2.144-5.122.665-1.22.641-2.379.641-3.745v-6.099c0-1.32-.199-2.614.389-3.812.573-1.164.801-2.959.864-4.226.156-3.152.751-6.232.751-9.389v-6.126c0-.915.135-1.649-.445-2.407a6.765 6.765 0 0 1-1.058-1.926" stroke="#000" stroke-width="5" stroke-linecap="round"/>
  <path d="M100.86 374.427v6.165c0 .961.263 2.399-.014 3.331-.049.165-.873-1.885-.96-2.167-.27-.869-.225-1.718-.307-2.608-.062-.673-.436-1.278-.473-1.939-.1-1.782-.622 1.077-.836 1.712-.195.58-.167 1.165-.167 1.765m1.504 24.074v7.918-15.341c0-2.657.127 5.318-.014 7.972-.216 4.034-1.4 7.889-1.49 11.916-.063 2.828 0 5.665 0 8.493 0 1.501.13 3.07-.056 4.561-.048.389-.097 1.284-.431 1.605-.54.518.052-1.465.125-2.194.1-.999.277-1.923.599-2.875.214-.634.717-1.47.766-2.127.096-1.3-.567.915-.697 1.204-.743 1.661-.444 3.367-.752 5.109-.198 1.123-.404 2.224-.57 3.344-.37 2.485-.673-5.082-.098-7.53.477-2.03 1.484-3.998 2.005-6.059.339-1.339.613-2.587.613-3.959" stroke="#000" stroke-width="5" stroke-linecap="round"/>
  <path transform="matrix(-.98367 -.17999 .1945 -.9809 203.699 274.74)" stroke="#000" stroke-width="5" d="M0-2.5h21.349"/>
</svg>
